<?xml version="1.0" encoding="UTF-8"?>
<svg id="Layer_2" xmlns="http://www.w3.org/2000/svg" viewBox="0 0 250 48">
  <defs>
    <style>
      .cls-1 {
        fill: #121820;
      }
    </style>
  </defs>
  <g id="Layer_1-2" data-name="Layer_1">
    <g>
      <g>
        <path class="cls-1" d="M14.96,41.3C6.59,41.3.12,36.91,0,29.29h8.66c.23,3.23,2.37,5.37,6.12,5.37s6.07-2.02,6.07-4.91C20.85,21.03.06,26.28.12,11.67.12,4.39,6.01,0,14.33,0s13.92,4.22,14.44,11.5h-8.9c-.17-2.66-2.31-4.74-5.78-4.8-3.18-.11-5.55,1.44-5.55,4.74,0,8.09,20.68,3.58,20.68,17.79,0,6.35-5.08,12.07-14.27,12.07Z"/>
        <path class="cls-1" d="M59.61,7.1h-15.31v10.11h13.57v6.41h-13.57v10.69h15.31v6.59h-23.39V.52h23.39v6.59Z"/>
        <path class="cls-1" d="M112.29.58h8.09v24.95c0,5.55,3,8.43,8.14,8.43s8.2-2.89,8.2-8.43V.58h8.14v24.9c0,10.63-7.62,15.83-16.46,15.83-8.84,0-16.12-5.2-16.12-15.83V.58Z"/>
        <path class="cls-1" d="M198.01.58h8.09v40.32h-8.09V.58Z"/>
        <path class="cls-1" d="M238.79,33.21h-16.06l-2.66,7.68h-8.49L226.09.52h9.42s14.5,40.38,14.5,40.38h-8.55s-2.66-7.68-2.66-7.68ZM230.76,9.88l-5.83,16.87h11.67l-5.83-16.87Z"/>
      </g>
      <path class="cls-1" d="M85.81.05c-11.44,0-20.71,9.27-20.71,20.71,0,11.44,9.27,20.71,20.71,20.71s20.71-9.27,20.71-20.71c0-11.44-9.27-20.71-20.71-20.71ZM85.81,34.27c-7.46,0-13.52-6.05-13.52-13.52s6.05-13.52,13.52-13.52,13.52,6.05,13.52,13.52-6.05,13.52-13.52,13.52Z"/>
      <path class="cls-1" d="M97.79,37.6l9.24,10.4h-10.05l-6.12-7.34,6.93-3.06Z"/>
      <path class="cls-1" d="M171.36.05c-11.44,0-20.71,9.27-20.71,20.71,0,11.44,9.27,20.71,20.71,20.71s20.71-9.27,20.71-20.71S182.79.05,171.36.05ZM171.36,34.27c-7.46,0-13.52-6.05-13.52-13.52,0-7.46,6.05-13.52,13.52-13.52s13.52,6.05,13.52,13.52-6.05,13.52-13.52,13.52Z"/>
    </g>
  </g>
</svg>