<?xml version="1.0" encoding="UTF-8"?>
<svg id="Layer_2" xmlns="http://www.w3.org/2000/svg" viewBox="0 0 475.7 304.93">
  <defs>
    <style>
      .cls-1 {
        font-family: GreycliffHebrewCF-Medium, 'GreycliffHebrewCF Medium';
        font-size: 22.47px;
        font-weight: 500;
      }

      .cls-1, .cls-2, .cls-3 {
        fill: #121820;
      }

      .cls-4 {
        stroke-dasharray: 4.96 4.96;
      }

      .cls-4, .cls-5, .cls-6, .cls-7 {
        fill: none;
        stroke: #121820;
        stroke-miterlimit: 10;
        stroke-width: 2.46px;
      }

      .cls-8 {
        fill: #fcfaf0;
      }

      .cls-2 {
        font-family: Poppins-SemiBold, 'Poppins SemiBold';
        font-size: 112.15px;
        font-weight: 600;
      }

      .cls-5 {
        stroke-dasharray: 4.79 4.79;
      }

      .cls-6 {
        stroke-dasharray: 4.92 4.92;
      }
    </style>
  </defs>
  <g id="Layer_1-2" data-name="Layer_1">
    <g>
      <g>
        <path class="cls-3" d="M219.73,38.43c3.25.32,6.14-2.05,6.46-5.3.29-2.92-1.66-5.45-4.4-6.18l.91-9.38c2.87-.15,5.3-2.27,5.59-5.21.32-3.25-2.05-6.14-5.3-6.46-3.25-.32-6.14,2.05-6.46,5.3-.29,2.96,1.69,5.52,4.49,6.21l-.9,9.34c-2.91.1-5.4,2.24-5.69,5.22-.32,3.25,2.05,6.14,5.3,6.46ZM234.33,41.06c3.15.84,6.39-1.04,7.23-4.2.75-2.84-.76-5.65-3.35-6.81l2.4-9.11c2.86.31,5.6-1.39,6.35-4.25.84-3.15-1.04-6.39-4.2-7.23-3.15-.84-6.39,1.04-7.22,4.2-.76,2.87.79,5.71,3.44,6.85l-2.39,9.08c-2.89-.36-5.68,1.35-6.45,4.24-.84,3.15,1.04,6.39,4.19,7.23ZM291.85,65.3c-2.09-2.03-5.35-2.33-7.7-.48-2.56,2.02-3.01,5.73-.99,8.3,2.02,2.56,5.73,3.01,8.3.99,2.31-1.82,2.79-4.97,1.41-7.46l7.39-5.84c2.09,1.97,5.31,2.26,7.63.42,2.56-2.02,3-5.73.99-8.3-2.02-2.56-5.73-3.01-8.3-.99-2.33,1.84-2.8,5.04-1.37,7.54l-7.36,5.82ZM317.06,91.14l-8.83,3.19c-1.34-2.58-4.34-3.91-7.15-2.89-3.07,1.1-4.66,4.49-3.56,7.56,1.1,3.07,4.49,4.67,7.56,3.56,2.76-.99,4.22-3.83,3.7-6.63l8.86-3.2c1.37,2.53,4.32,3.82,7.11,2.82,3.07-1.1,4.67-4.49,3.56-7.56-1.1-3.07-4.49-4.67-7.56-3.56-2.79,1-4.25,3.89-3.69,6.72ZM245.35,38.19c-1.33,2.98,0,6.47,2.98,7.8,2.98,1.33,6.47,0,7.8-2.98,1.2-2.68.16-5.69-2.22-7.26l3.83-8.61c2.77.77,5.74-.47,6.95-3.17,1.33-2.98,0-6.47-2.98-7.8-2.98-1.33-6.47,0-7.81,2.98-1.21,2.71-.14,5.77,2.29,7.31l-3.81,8.58c-2.79-.82-5.83.42-7.05,3.15ZM309.41,74.59l-8.2,4.56c-1.74-2.34-4.91-3.16-7.53-1.71-2.85,1.58-3.89,5.18-2.3,8.03,1.58,2.85,5.18,3.89,8.03,2.3,2.57-1.42,3.55-4.46,2.59-7.13l8.23-4.58c1.75,2.27,4.88,3.07,7.47,1.64,2.85-1.58,3.89-5.18,2.3-8.03-1.58-2.85-5.18-3.89-8.03-2.3-2.6,1.44-3.58,4.53-2.56,7.23ZM323.96,126.82l-9.38.23c-.46-2.88-2.88-5.08-5.87-5.01-3.26.07-5.85,2.78-5.77,6.04.07,3.26,2.78,5.85,6.04,5.77,2.94-.07,5.21-2.3,5.61-5.11l9.42-.23c.49,2.83,2.89,4.99,5.85,4.92,3.26-.07,5.85-2.78,5.77-6.04-.07-3.26-2.78-5.85-6.04-5.77-2.97.07-5.27,2.35-5.62,5.21ZM280.39,53.13c-2.39-1.66-5.66-1.45-7.68.76-2.21,2.4-2.05,6.14.36,8.35,2.4,2.21,6.14,2.05,8.35-.36,1.99-2.16,1.95-5.35.19-7.59l6.36-6.95c2.38,1.61,5.6,1.38,7.6-.81,2.21-2.4,2.05-6.14-.36-8.35-2.4-2.21-6.14-2.05-8.35.36-2.01,2.19-1.96,5.43-.14,7.66l-6.33,6.93ZM259.66,44.94c-1.79,2.73-1.04,6.39,1.69,8.18,2.73,1.79,6.39,1.03,8.18-1.69,1.61-2.45,1.07-5.6-1.02-7.52l5.16-7.89c2.61,1.2,5.75.46,7.37-2.02,1.79-2.73,1.04-6.39-1.69-8.18-2.73-1.79-6.39-1.04-8.18,1.69-1.63,2.48-1.06,5.67,1.09,7.59l-5.14,7.85c-2.62-1.26-5.82-.52-7.46,1.98ZM321.95,108.7l-9.23,1.73c-.91-2.77-3.66-4.55-6.6-4.01-3.21.6-5.33,3.68-4.73,6.89.6,3.21,3.68,5.33,6.89,4.73,2.89-.54,4.78-3.1,4.71-5.95l9.26-1.74c.94,2.71,3.65,4.46,6.56,3.92,3.21-.6,5.33-3.68,4.73-6.89-.6-3.21-3.68-5.33-6.89-4.73-2.92.54-4.82,3.16-4.72,6.04ZM214.97,228.43c.06-3.26-2.54-5.95-5.8-6.01-3.26-.06-5.95,2.54-6.01,5.8-.05,2.94,2.09,5.3,4.89,5.81l-.15,9.42c-2.85.38-5.1,2.69-5.16,5.65-.06,3.26,2.54,5.95,5.8,6.01s5.96-2.54,6.01-5.8c.05-2.97-2.13-5.36-4.97-5.83l.15-9.39c2.89-.34,5.19-2.67,5.25-5.66ZM194.39,220.97c-3.21-.58-6.28,1.55-6.86,4.76-.52,2.89,1.21,5.57,3.89,6.52l-1.66,9.28c-2.87-.08-5.47,1.83-5.99,4.75-.58,3.21,1.55,6.28,4.76,6.86,3.21.58,6.29-1.55,6.87-4.76.53-2.92-1.25-5.63-3.98-6.55l1.65-9.24c2.91.13,5.56-1.8,6.09-4.75.58-3.21-1.55-6.28-4.76-6.86ZM135.11,201.44c2.25,1.85,5.52,1.89,7.72-.14,2.39-2.22,2.53-5.96.32-8.35-2.22-2.39-5.96-2.53-8.35-.32-2.15,2-2.38,5.18-.8,7.55l-6.9,6.42c-2.25-1.79-5.47-1.82-7.64.19-2.39,2.22-2.53,5.96-.32,8.35,2.22,2.39,5.96,2.53,8.35.32,2.18-2.02,2.39-5.25.76-7.63l6.87-6.39ZM155.11,211.27c2.01-2.57,1.55-6.29-1.03-8.29-2.57-2.01-6.29-1.55-8.29,1.03-1.8,2.32-1.52,5.49.42,7.58l-5.78,7.44c-2.5-1.41-5.69-.92-7.51,1.42-2.01,2.57-1.55,6.29,1.03,8.29,2.57,2.01,6.29,1.55,8.29-1.03,1.82-2.34,1.52-5.57-.48-7.65l5.75-7.42c2.52,1.47,5.76.99,7.6-1.37ZM168.83,219.14c1.57-2.86.52-6.45-2.35-8.02-2.86-1.57-6.45-.52-8.02,2.34-1.41,2.58-.61,5.67,1.63,7.42l-4.51,8.27c-2.7-.99-5.77,0-7.19,2.6-1.57,2.86-.52,6.45,2.35,8.02,2.86,1.57,6.45.52,8.02-2.34,1.43-2.6.6-5.74-1.7-7.47l4.49-8.24c2.72,1.04,5.84.05,7.27-2.58ZM180.05,217.17c-3.08-1.09-6.45.52-7.54,3.6-.98,2.77.3,5.69,2.79,7.06l-3.12,8.89c-2.82-.54-5.69.93-6.68,3.72-1.09,3.08.52,6.45,3.6,7.54,3.08,1.09,6.45-.52,7.54-3.6.99-2.8-.32-5.76-2.87-7.1l3.11-8.86c2.85.59,5.77-.89,6.77-3.71,1.09-3.08-.52-6.45-3.6-7.54ZM245.49,238.02l-2.83-8.95c2.64-1.24,4.08-4.18,3.18-7.03-.98-3.11-4.29-4.84-7.41-3.86-3.11.98-4.84,4.3-3.87,7.41.88,2.8,3.66,4.37,6.48,3.96l2.84,8.98c-2.58,1.26-3.99,4.16-3.1,6.99.98,3.11,4.29,4.84,7.41,3.86,3.11-.98,4.84-4.3,3.86-7.41-.89-2.83-3.72-4.41-6.56-3.95ZM303.28,195.52l-7.64-5.45c1.37-2.57.75-5.79-1.68-7.54-2.65-1.9-6.34-1.29-8.24,1.36-1.9,2.65-1.29,6.34,1.36,8.24,2.39,1.71,5.55,1.29,7.56-.72l7.67,5.47c-1.31,2.56-.69,5.73,1.72,7.45,2.65,1.9,6.34,1.29,8.24-1.36,1.9-2.65,1.29-6.34-1.36-8.24-2.41-1.73-5.62-1.29-7.63.79ZM326.19,159.69c-2.83-.88-5.74.56-6.98,3.16l-8.97-2.75c.48-2.87-1.12-5.73-3.98-6.61-3.12-.96-6.43.78-7.39,3.9-.96,3.12.78,6.43,3.9,7.39,2.81.87,5.67-.53,6.94-3.08l9.01,2.76c-.43,2.84,1.16,5.65,3.99,6.52,3.12.96,6.43-.78,7.39-3.9.96-3.12-.78-6.43-3.9-7.39ZM319.97,177.82c-2.66-1.32-5.75-.37-7.4,1.99l-8.42-4.16c.93-2.76-.19-5.83-2.87-7.16-2.92-1.45-6.47-.26-7.92,2.67-1.45,2.92-.26,6.47,2.67,7.92,2.63,1.31,5.68.39,7.34-1.92l8.45,4.17c-.88,2.74.24,5.76,2.89,7.08,2.92,1.45,6.47.26,7.92-2.67,1.45-2.92.26-6.47-2.66-7.92ZM329.43,140.78c-2.94-.41-5.58,1.47-6.39,4.24l-9.3-1.28c.01-2.91-2.03-5.48-4.99-5.89-3.23-.45-6.22,1.8-6.67,5.04-.45,3.23,1.8,6.22,5.04,6.67,2.91.41,5.51-1.43,6.35-4.15l9.34,1.28c.03,2.87,2.05,5.39,4.98,5.8,3.23.45,6.22-1.8,6.67-5.04s-1.8-6.22-5.04-6.67ZM124.66,188.38c1.92,2.19,5.15,2.76,7.64,1.1,2.72-1.81,3.46-5.47,1.65-8.19-1.81-2.72-5.47-3.46-8.19-1.65-2.45,1.63-3.18,4.73-2.01,7.32l-7.84,5.23c-1.93-2.13-5.11-2.67-7.57-1.03-2.72,1.81-3.46,5.47-1.65,8.19,1.8,2.72,5.47,3.46,8.19,1.65,2.47-1.64,3.2-4.8,1.97-7.41l7.81-5.21ZM291.61,209.51l-6.67-6.61c1.76-2.32,1.67-5.6-.45-7.71-2.31-2.3-6.05-2.29-8.35.02-2.3,2.31-2.29,6.05.02,8.35,2.08,2.07,5.27,2.17,7.57.5l6.69,6.63c-1.7,2.32-1.6,5.54.5,7.63,2.31,2.3,6.05,2.29,8.35-.02,2.3-2.31,2.29-6.05-.02-8.36-2.11-2.09-5.34-2.18-7.65-.45ZM262.33,231.05l-4.23-8.38c2.4-1.64,3.36-4.78,2.02-7.45-1.46-2.92-5.01-4.09-7.93-2.63-2.92,1.47-4.09,5.02-2.63,7.93,1.32,2.62,4.31,3.73,7.03,2.87l4.25,8.41c-2.35,1.66-3.27,4.75-1.94,7.4,1.47,2.92,5.02,4.09,7.93,2.63,2.92-1.46,4.09-5.02,2.62-7.93-1.33-2.65-4.38-3.76-7.12-2.85ZM227.75,242.2l-1.36-9.29c2.8-.8,4.69-3.47,4.27-6.43-.47-3.23-3.46-5.47-6.69-5-3.23.47-5.47,3.46-5,6.69.42,2.91,2.91,4.9,5.75,4.95l1.36,9.32c-2.75.83-4.6,3.47-4.18,6.4.47,3.23,3.46,5.47,6.69,5,3.23-.47,5.47-3.46,5-6.69-.42-2.94-2.96-4.95-5.84-4.96ZM277.85,221.46l-5.52-7.59c2.11-2.01,2.54-5.25.79-7.68-1.91-2.64-5.61-3.23-8.25-1.32-2.64,1.91-3.23,5.61-1.32,8.25,1.72,2.38,4.85,2.98,7.39,1.71l5.54,7.62c-2.05,2.01-2.46,5.21-.73,7.61,1.91,2.64,5.61,3.23,8.25,1.32,2.64-1.91,3.23-5.61,1.32-8.25-1.74-2.4-4.92-3-7.48-1.67ZM136.5,44.66l6.11,7.12c-1.94,2.17-2.12,5.44-.17,7.72,2.12,2.48,5.85,2.77,8.33.65,2.48-2.12,2.77-5.85.65-8.33-1.91-2.23-5.08-2.58-7.51-1.11l-6.14-7.15c1.88-2.17,2.04-5.39.12-7.64-2.12-2.48-5.85-2.77-8.33-.65-2.48,2.12-2.77,5.85-.65,8.33,1.93,2.26,5.15,2.6,7.59,1.06ZM184.76,19.96l2.11,9.15c-2.73,1.02-4.4,3.84-3.74,6.75.72,3.18,3.89,5.17,7.07,4.45,3.18-.72,5.17-3.89,4.45-7.07-.65-2.86-3.3-4.65-6.13-4.47l-2.11-9.18c2.68-1.05,4.31-3.83,3.66-6.72-.72-3.18-3.89-5.17-7.07-4.45-3.18.72-5.17,3.89-4.45,7.07.66,2.89,3.35,4.69,6.22,4.47ZM202.78,17.22l.61,9.37c-2.86.57-4.96,3.08-4.77,6.07.21,3.26,3.01,5.73,6.27,5.52,3.26-.21,5.73-3.01,5.53-6.27-.19-2.93-2.51-5.11-5.34-5.4l-.61-9.4c2.81-.61,4.87-3.09,4.68-6.04-.21-3.26-3.01-5.73-6.27-5.52-3.26.21-5.73,3.01-5.52,6.27.19,2.96,2.56,5.17,5.43,5.41ZM151.18,33.86l4.89,8.01c-2.26,1.83-2.96,5.03-1.41,7.59,1.7,2.79,5.33,3.67,8.12,1.98,2.79-1.7,3.67-5.33,1.98-8.12-1.53-2.51-4.6-3.37-7.24-2.3l-4.91-8.04c2.21-1.84,2.88-5,1.34-7.53-1.69-2.79-5.33-3.67-8.12-1.98-2.79,1.7-3.67,5.33-1.98,8.12,1.54,2.54,4.66,3.39,7.32,2.27ZM107.9,177.71l8.54-3.89c1.55,2.47,4.64,3.55,7.37,2.31,2.97-1.35,4.29-4.85,2.94-7.82-1.35-2.97-4.85-4.29-7.82-2.94-2.67,1.21-3.89,4.16-3.15,6.9l-8.58,3.91c-1.56-2.41-4.61-3.46-7.31-2.24-2.97,1.35-4.29,4.85-2.94,7.82,1.35,2.97,4.85,4.29,7.82,2.94,2.71-1.23,3.93-4.22,3.13-7ZM167.41,25.55l3.54,8.69c-2.53,1.45-3.73,4.49-2.6,7.26,1.23,3.02,4.67,4.48,7.69,3.26,3.02-1.23,4.48-4.67,3.26-7.69-1.1-2.72-4-4.06-6.77-3.43l-3.56-8.73c2.47-1.47,3.64-4.47,2.53-7.21-1.23-3.02-4.67-4.48-7.69-3.26-3.02,1.23-4.48,4.67-3.26,7.69,1.11,2.75,4.06,4.09,6.86,3.41ZM98.16,142.7l9.33-.99c.69,2.83,3.28,4.83,6.25,4.52,3.24-.34,5.6-3.24,5.27-6.49-.34-3.25-3.24-5.6-6.49-5.27-2.92.3-5.01,2.71-5.18,5.55l-9.37.99c-.72-2.78-3.28-4.74-6.23-4.44-3.24.34-5.6,3.24-5.27,6.49.34,3.25,3.24,5.6,6.49,5.27,2.95-.31,5.06-2.76,5.19-5.64ZM93.29,110.13c2.9.64,5.68-1.02,6.7-3.71l9.17,2.02c-.25,2.9,1.58,5.62,4.5,6.27,3.19.71,6.34-1.3,7.05-4.48.71-3.19-1.3-6.34-4.48-7.05-2.87-.64-5.61.99-6.67,3.63l-9.2-2.03c.2-2.87-1.61-5.54-4.5-6.18-3.18-.71-6.34,1.3-7.05,4.48-.71,3.18,1.3,6.34,4.48,7.05ZM91.59,129.22c2.96.17,5.44-1.91,6.02-4.74l9.37.52c.22,2.9,2.46,5.3,5.45,5.47,3.26.19,6.05-2.3,6.24-5.56.19-3.26-2.3-6.05-5.56-6.24-2.93-.17-5.38,1.87-6,4.65l-9.41-.53c-.26-2.86-2.48-5.21-5.43-5.38-3.26-.19-6.05,2.3-6.24,5.56-.19,3.26,2.3,6.05,5.56,6.24ZM101.62,160.6l9.05-2.47c1.13,2.68,4.01,4.25,6.9,3.46,3.15-.85,5.01-4.1,4.16-7.25-.85-3.15-4.1-5.01-7.25-4.16-2.83.77-4.51,3.48-4.22,6.31l-9.09,2.48c-1.16-2.63-4-4.15-6.86-3.38-3.15.85-5.01,4.1-4.16,7.25.85,3.15,4.1,5.01,7.25,4.16,2.86-.78,4.55-3.54,4.21-6.4ZM98.03,91.54c2.76,1.1,5.77-.09,7.22-2.59l8.72,3.47c-.71,2.82.65,5.8,3.43,6.91,3.03,1.21,6.47-.26,7.68-3.29,1.21-3.03-.26-6.47-3.29-7.68-2.73-1.09-5.7.07-7.16,2.51l-8.76-3.48c.66-2.8-.7-5.72-3.45-6.82-3.03-1.21-6.47.26-7.68,3.29-1.21,3.03.26,6.47,3.29,7.68ZM123.74,57.67l7.18,6.05c-1.57,2.45-1.22,5.71,1.07,7.65,2.49,2.11,6.22,1.8,8.33-.69,2.11-2.49,1.8-6.22-.69-8.33-2.24-1.9-5.43-1.74-7.59.11l-7.2-6.07c1.51-2.45,1.15-5.65-1.11-7.57-2.49-2.11-6.22-1.8-8.33.69-2.11,2.49-1.8,6.22.69,8.33,2.26,1.92,5.5,1.74,7.66-.17ZM105.69,73.96c2.54,1.53,5.71.83,7.53-1.39l8.06,4.82c-1.15,2.67-.28,5.83,2.28,7.37,2.8,1.68,6.43.78,8.11-2.02,1.68-2.8.78-6.43-2.02-8.11-2.51-1.51-5.63-.84-7.47,1.32l-8.09-4.84c1.09-2.66.23-5.76-2.31-7.29-2.8-1.68-6.43-.78-8.11,2.02-1.68,2.8-.78,6.43,2.02,8.11Z"/>
        <circle class="cls-8" cx="210.82" cy="130.32" r="82.11"/>
      </g>
      <text class="cls-2" transform="translate(169.56 171.24)"><tspan x="0" y="0">O</tspan></text>
      <g>
        <text class="cls-1" transform="translate(291.48 18.81)"><tspan x="0" y="0">ויטמין/עשבי תיבול</tspan></text>
        <g>
          <line class="cls-7" x1="236.14" y1="90.74" x2="237.88" y2="89"/>
          <line class="cls-5" x1="241.27" y1="85.62" x2="293.72" y2="33.16"/>
          <polyline class="cls-7" points="295.41 31.47 297.15 29.73 299.61 29.73"/>
          <line class="cls-4" x1="304.57" y1="29.73" x2="470.76" y2="29.73"/>
          <line class="cls-7" x1="473.24" y1="29.73" x2="475.7" y2="29.73"/>
        </g>
      </g>
      <g>
        <text class="cls-1" transform="translate(-4.54 299.31)"><tspan x="0" y="0">ליפוזום</tspan></text>
        <polyline class="cls-6" points="66.22 271.99 100.12 238.09 149.12 238.09"/>
      </g>
    </g>
  </g>
</svg>