<svg width="82" height="83" viewBox="0 0 82 83" fill="none" xmlns="http://www.w3.org/2000/svg">
<path d="M72.94 36.05C72.32 34.42 71.04 32.96 69.48 31.91C64.99 29.06 58.15 28.85 53.52 31.43C51 32.72 49.34 35.26 48.82 37.88C47.88 42.19 48.13 47.31 51.44 50.54C55.31 53.93 60.94 54.68 65.95 53.29C66.19 53.24 66.94 53.06 67.46 52.78L67.61 52.72C69.16 52.07 70.65 51.02 71.75 49.6C74.31 45.87 74.48 40.26 72.93 36.06L72.94 36.05ZM64.79 45.72C64.62 46.54 64.07 47.38 63.2 47.69C61.82 48.3 59.95 48.13 58.68 47.42C57.61 46.67 57.47 45.42 57.33 44.23C57.23 41.89 57.06 39.41 57.71 37.27C58.22 35.94 59.64 35.6 60.92 35.5C62.27 35.5 63.58 35.7 64.41 36.79C64.93 37.57 64.89 38.59 65 39.51C64.96 41.44 65.14 43.75 64.79 45.72Z" fill="#F8F5EA"/>
<path d="M23.86 47.8301C22.72 47.7601 21.44 47.8601 20.34 47.7301L20.37 35.8101L20.44 35.7101L23.86 35.6801C23.9 33.7501 23.93 31.6701 23.82 29.9101L10.8 29.8701L8.65998 29.9101C8.62998 31.7101 8.62998 33.8101 8.65998 35.6501C9.83998 35.6901 10.94 35.6501 12.08 35.7601V47.3001L12.05 47.7801L8.62998 47.8501C8.55998 49.7501 8.55998 51.5801 8.62998 53.4501H23.86V47.8501V47.8301Z" fill="#F8F5EA"/>
<path d="M62.2 55.97C60.75 58.04 58.92 60.04 56.92 61.6C56.85 61.7 56.64 61.67 56.57 61.57C55.7 61.03 54.77 60.59 53.94 60.04C55.05 58.72 56.12 57.39 56.95 55.93H55.88C55.02 57.19 54.12 58.51 52.98 59.63C51.46 59.02 50.08 58.48 48.52 58.07L48.35 57.94C48.59 57.25 49.04 56.61 49.18 55.93H48.25L47.32 57.76C45.28 57.32 43.04 57.08 40.96 56.95C40.85 56.65 40.99 56.2 40.85 55.93H39.95C39.88 56.34 40.05 56.65 39.85 56.99C37.71 57.09 35.64 57.33 33.63 57.74L32.69 55.94C32.35 55.94 31.97 55.87 31.72 55.98L32.58 57.98L32.48 58.08C30.92 58.52 29.41 59.07 27.92 59.68L27.78 59.61C26.81 58.56 25.88 57.41 25.12 56.25C24.95 55.67 24.26 56.01 23.88 55.94C24.71 57.43 25.81 58.76 26.92 60.12C25.99 60.66 25.06 61.27 24.09 61.72C22.02 60.16 20.09 58.12 18.63 55.98C18.21 55.91 17.94 55.94 17.52 55.98C20.01 59.85 23.88 63.24 27.92 65.25C27.92 65.25 27.92 65.22 27.96 65.22C27.99 65.22 28.06 65.28 27.99 65.32C30.72 66.64 33.62 67.59 36.7 68C47.3 69.39 57.43 64.88 63.3 55.98C62.99 55.94 62.54 55.94 62.19 55.98L62.2 55.97ZM47.79 59.03L47.89 58.96C49.38 59.3 50.79 59.77 52.11 60.42C51 61.67 49.59 62.76 48.28 63.68C47.49 64.15 46.69 64.67 45.86 65.07L44.38 64.43L44.48 64.2C45.73 62.54 46.83 60.84 47.8 59.04L47.79 59.03ZM40.99 58.01C42.96 58.05 44.93 58.25 46.76 58.69L46.8 58.79C45.83 60.62 44.62 62.39 43.31 64.05C42.72 64.12 42.17 63.88 41.58 63.85L40.99 63.78C40.92 61.78 40.88 60.01 40.99 58.01ZM34.32 58.62C36.12 58.28 37.98 58.01 39.91 58.01L39.95 63.75C39.22 63.92 38.43 63.92 37.74 64.09C36.32 62.42 35.15 60.62 34.15 58.75L34.32 58.61V58.62ZM28.76 60.45C30.11 59.8 31.52 59.33 32.97 58.95L33.11 58.99C34.11 60.86 35.35 62.62 36.6 64.39C36.12 64.66 35.53 64.83 35.05 65.1C32.77 63.98 30.59 62.42 28.76 60.55V60.45ZM33.22 66.26C30.32 65.51 27.62 64.22 25.14 62.46V62.36C25.97 61.85 26.8 61.31 27.7 60.93C29.67 62.87 31.71 64.33 33.92 65.72C33.75 65.92 33.47 66.13 33.23 66.26H33.22ZM46.03 66.7C42.37 67.48 38.29 67.52 34.63 66.63C34.56 66.46 34.8 66.43 34.91 66.33C38.12 64.26 43.13 64.26 46.28 66.5C46.38 66.7 46.11 66.64 46.04 66.7H46.03ZM49.35 65.75L47.73 66.26C47.45 66.12 47.21 65.92 46.97 65.72L47.04 65.62C49.25 64.33 51.25 62.77 53.15 60.9C54.08 61.27 54.98 61.78 55.81 62.36C53.88 63.89 51.63 64.91 49.35 65.76V65.75Z" fill="#F8F5EA"/>
<path d="M18.57 27.29C19.4 26.14 20.33 25.02 21.37 23.93C22.27 23.08 23.1 22.27 24.06 21.65C24.96 22.23 25.96 22.71 26.82 23.25C25.75 24.57 24.65 25.9 23.85 27.32C24.09 27.42 24.54 27.39 24.89 27.32C25.75 26.07 26.69 24.81 27.79 23.69C29.27 24.23 30.73 24.81 32.25 25.22L32.39 25.36L31.53 27.33C31.91 27.4 32.15 27.37 32.53 27.33C32.84 26.76 33.08 26.11 33.43 25.53C35.44 25.97 37.54 26.21 39.69 26.28C39.97 26.52 39.76 27.03 39.86 27.33H40.79C40.89 27 40.76 26.62 40.89 26.32C42.9 26.21 45 26.01 46.94 25.54L47.11 25.58L48.04 27.34C48.35 27.34 48.76 27.41 49.01 27.27L48.14 25.31L48.21 25.24C49.8 24.83 51.28 24.22 52.8 23.61C53.87 24.73 54.87 26.05 55.77 27.34C56.15 27.34 56.53 27.38 56.8 27.27C56.38 26.53 55.86 25.78 55.31 25.13C54.86 24.49 54.38 23.91 53.79 23.3V23.13L56.21 21.74L56.56 21.6C58.66 23.19 60.53 25.13 62.02 27.27C62.43 27.27 62.78 27.41 63.13 27.24C58.5 20.32 50.87 15.87 42.61 15.23L42.57 15.3L42.5 15.23C41.57 15.13 40.42 15.09 39.42 15.19C39.04 15.16 38.59 15.19 38.14 15.23C29.85 15.87 22.22 20.12 17.45 27.34C17.8 27.31 18.21 27.44 18.56 27.31L18.57 27.29ZM32.91 24.3L32.77 24.33C31.35 23.96 29.97 23.51 28.66 22.94L28.73 22.74C30.63 20.94 32.63 19.45 34.84 18.3C35.36 18.5 35.88 18.67 36.39 18.91L36.29 19.17C34.98 20.8 33.94 22.57 32.91 24.3ZM39.78 25.22C38.81 25.36 37.95 25.19 36.98 25.11C36.05 24.97 34.87 24.88 33.94 24.57C34.94 22.71 36.12 20.91 37.53 19.25L39.74 19.55C39.84 21.31 39.77 23.35 39.77 25.22H39.78ZM40.85 25.25C40.78 23.45 40.82 21.45 40.85 19.58C41.54 19.48 42.3 19.38 42.99 19.28C44.34 20.97 45.65 22.71 46.55 24.57C44.68 25.02 42.78 25.26 40.85 25.26V25.25ZM51.87 22.87C50.52 23.44 49.14 23.99 47.65 24.3C46.58 22.5 45.41 20.7 44.09 18.96C44.57 18.7 45.16 18.49 45.68 18.22C47.93 19.34 50.1 20.93 51.93 22.76L51.86 22.87H51.87ZM47.45 17.07C50.35 17.82 53.08 19.11 55.57 20.87L55.5 21.01L53.12 22.33H52.95C51.12 20.5 48.98 18.91 46.8 17.65C46.87 17.41 47.21 17.24 47.46 17.07H47.45ZM46.07 16.73V16.8C43.06 18.97 38.19 19.17 35.02 17.17C34.84 17.03 34.5 16.97 34.46 16.73C38.12 15.88 42.44 15.82 46.07 16.73ZM25 20.94C27.18 19.35 29.6 18.16 32.15 17.34C32.25 17.23 32.32 17.14 32.46 17.14V17.21C32.74 17.28 32.94 16.97 33.18 17.17C33.39 17.34 33.63 17.48 33.8 17.65C31.66 18.97 29.55 20.53 27.62 22.43C26.69 22.1 25.82 21.58 24.99 21.01V20.94H25Z" fill="#F8F5EA"/>
<path d="M39.82 48.09C36.57 48.97 33.05 48.3 30.7 45.85C30.43 45.51 30.25 45.11 29.97 44.77L25.31 44.8C25.24 47.55 25.2 50.71 25.31 53.42L30.49 53.39L30.56 51.76C31.15 52.03 31.74 52.37 32.32 52.67C35.91 54.17 40.54 54.5 44.1 52.67C46.69 51.25 48.08 48.5 47.69 45.54C47.31 42.66 44.55 40.04 41.75 39.33L33.39 36.92L32.77 36.61C32.49 36.38 32.32 36.07 32.39 35.7C33.05 34.58 34.57 34.92 35.71 34.95C38.13 35.29 40.62 36.1 42.03 38.31C43.55 38.31 45.31 38.34 46.97 38.27C47.04 35.49 46.94 33.05 46.9 30.23C45.35 30.19 43.44 30.19 41.89 30.27C41.82 30.67 41.96 31.25 41.78 31.66L40.19 30.81C36.39 29.22 31.07 29.05 27.62 31.53C25.37 33.16 24.68 36.08 25.27 38.66C25.72 41.1 28.07 42.9 30.31 43.75C33.38 44.84 36.6 45.62 39.71 46.67C40.02 46.81 40.43 47.12 40.37 47.49C40.37 47.79 40.06 47.97 39.82 48.09Z" fill="#F8F5EA"/>
<path d="M7.15999 55.9099L7.32999 56.2999C7.35999 56.3699 7.32999 56.4599 7.23999 56.4899L2.25999 58.6399C2.18999 58.6699 2.09999 58.6399 2.06999 58.5699L1.89999 58.1799C1.86999 58.1099 1.89999 58.0299 1.97999 57.9899L6.95999 55.8399C7.02999 55.8099 7.11999 55.8299 7.15999 55.9099Z" fill="#F8F5EA"/>
<path d="M5.68999 51.8901L5.80999 52.2401C5.83999 52.3201 5.78999 52.4101 5.70999 52.4401L3.29999 53.2501C2.55999 53.5001 2.41999 53.8201 2.60999 54.3801C2.70999 54.6901 2.94999 54.9901 3.22999 55.2701L6.31999 54.2301C6.38999 54.2001 6.48999 54.2501 6.51999 54.3301L6.63999 54.6901C6.65999 54.7601 6.61999 54.8501 6.53999 54.8801L2.80999 56.1401C2.72999 56.1701 2.63999 56.1401 2.61999 56.0501L2.49999 55.6901C2.46999 55.6101 2.51999 55.5301 2.59999 55.5001L2.73999 55.4501C2.37999 55.1301 2.15999 54.8301 2.00999 54.4001C1.70999 53.5201 2.12999 52.9401 3.09999 52.6101L5.50999 51.8001C5.58999 51.7701 5.67999 51.8201 5.70999 51.9001L5.68999 51.8901Z" fill="#F8F5EA"/>
<path d="M4.99999 49.01C5.05999 49.15 5.11999 49.35 5.14999 49.49C5.30999 50.18 5.20999 50.55 4.38999 50.75L1.76999 51.37L1.85999 52.12C1.86999 52.2 1.83999 52.28 1.75999 52.29L1.55999 52.34C1.47999 52.36 1.40999 52.31 1.38999 52.23L1.21999 51.5L0.489992 51.67C0.409992 51.69 0.339992 51.65 0.309992 51.57L0.159992 51.19V51.17C0.139992 51.11 0.189992 51.04 0.259992 51.03L1.07999 50.84L0.889992 50.03C0.869992 49.95 0.919992 49.86 0.999992 49.85L1.25999 49.79C1.33999 49.77 1.42999 49.82 1.44999 49.9L1.63999 50.71L4.24999 50.08C4.65999 49.98 4.69999 49.86 4.62999 49.56L4.52999 49.14C4.50999 49.04 4.52999 48.97 4.59999 48.96L4.85999 48.9C4.92999 48.88 4.97999 48.91 5.01999 49L4.99999 49.01Z" fill="#F8F5EA"/>
<path d="M2.53999 45.55L2.88999 48.11L2.99999 48.09C3.90999 47.96 4.18999 47.56 4.09999 46.86C4.03999 46.42 3.92999 45.86 3.82999 45.51C3.82999 45.49 3.82999 45.49 3.82999 45.47C3.82999 45.41 3.83999 45.34 3.91999 45.33L4.17999 45.29C4.27999 45.28 4.33999 45.29 4.37999 45.42C4.51999 45.84 4.62999 46.26 4.69999 46.77C4.81999 47.65 4.52999 48.56 3.10999 48.76L2.41999 48.85C1.32999 49 0.549988 48.5 0.399988 47.4C0.249988 46.28 0.869988 45.62 1.94999 45.47L2.35999 45.41C2.45999 45.4 2.52999 45.44 2.54999 45.53L2.53999 45.55ZM2.02999 46.16C1.16999 46.28 0.879988 46.65 0.969988 47.33C1.05999 47.99 1.47999 48.3 2.30999 48.19H2.37999L2.09999 46.16H2.02999Z" fill="#F8F5EA"/>
<path d="M0.58999 42.8899C0.60999 43.2499 0.71999 43.5599 0.96999 43.9299L4.18999 43.7599C4.26999 43.7599 4.34999 43.8199 4.34999 43.9099L4.36999 44.2899C4.36999 44.3699 4.30999 44.4399 4.21999 44.4399L0.29999 44.6499C0.21999 44.6499 0.13999 44.5999 0.13999 44.5099L0.11999 44.1499C0.11999 44.0699 0.17999 43.9999 0.25999 43.9999H0.41999C0.12999 43.6199 0.00999023 43.2699 -0.0100098 42.9299C-0.0100098 42.8199 0.0299902 42.7699 0.11999 42.7599H0.42999C0.50999 42.7399 0.56999 42.7899 0.56999 42.8999L0.58999 42.8899Z" fill="#F8F5EA"/>
<path d="M4.36998 38.88L4.34998 39.25C4.34998 39.33 4.26998 39.4 4.18998 39.4L1.65998 39.3C0.879979 39.27 0.629979 39.52 0.609979 40.11C0.589979 40.43 0.699979 40.8 0.869979 41.16L4.10998 41.29C4.18998 41.29 4.25998 41.37 4.25998 41.45L4.23998 41.83C4.23998 41.91 4.15998 41.97 4.07998 41.97L0.159979 41.82C0.0799792 41.82 0.00997925 41.75 0.00997925 41.67L0.0299792 41.28C0.0299792 41.2 0.109979 41.14 0.189979 41.14H0.329979C0.109979 40.71 0.00997925 40.36 0.0299792 39.91C0.0699792 38.99 0.659979 38.6 1.67998 38.64L4.20998 38.74C4.29998 38.74 4.35998 38.82 4.35998 38.9L4.36998 38.88Z" fill="#F8F5EA"/>
<path d="M4.88 35.11L4.83 35.46C4.82 35.54 4.74 35.6 4.66 35.59L4.49 35.57C4.65 35.97 4.75 36.37 4.69 36.8C4.59 37.45 4.22 38 3.27 37.86H3.18001C2.36001 37.72 2.02 37.18 2.22 35.83L2.3 35.27L2 35.22C1.36 35.13 1.11 35.31 1.02 35.91C0.940005 36.41 0.920005 36.78 0.910005 37.09C0.910005 37.11 0.910005 37.11 0.910005 37.13C0.900005 37.2 0.860005 37.27 0.770005 37.25L0.500005 37.21C0.420005 37.2 0.380005 37.14 0.380005 37.03C0.380005 36.71 0.380005 36.35 0.460005 35.83C0.620005 34.77 1.21 34.43 2.11 34.56L4.77 34.95C4.85 34.96 4.91 35.04 4.9 35.12L4.88 35.11ZM2.77 35.33L2.69 35.89C2.55 36.81 2.72 37.08 3.26 37.17H3.35C3.9 37.26 4.08 37.03 4.15 36.59C4.2 36.24 4.15 35.91 4 35.52L2.78 35.34L2.77 35.33Z" fill="#F8F5EA"/>
<path d="M5.55 32.27C5.54 32.42 5.5 32.62 5.47 32.77C5.3 33.46 5.05 33.74 4.22 33.55L1.6 32.93L1.34 33.64C1.31 33.72 1.26 33.77 1.17 33.75L0.970002 33.7C0.890002 33.68 0.850002 33.61 0.870002 33.53L1.04 32.8L0.310002 32.63C0.230002 32.61 0.190002 32.54 0.190002 32.46L0.220002 32.06V32.04C0.240002 31.98 0.300002 31.94 0.370002 31.96L1.19 32.15L1.38 31.34C1.4 31.26 1.49 31.21 1.57 31.23L1.83 31.29C1.91 31.31 1.96 31.39 1.94 31.47L1.75 32.28L4.36 32.91C4.77 33.01 4.86 32.91 4.93 32.62L5.03 32.2C5.05 32.1 5.1 32.05 5.17 32.07L5.43 32.13C5.5 32.15 5.54 32.19 5.53 32.3L5.55 32.27Z" fill="#F8F5EA"/>
<path d="M1.23998 29.56L1.12998 29.94C1.09998 30.02 1.01998 30.07 0.93998 30.04L0.34998 29.86C0.26998 29.84 0.21998 29.75 0.24998 29.67L0.35998 29.29C0.38998 29.21 0.46998 29.16 0.54998 29.19L1.13998 29.37C1.21998 29.4 1.26998 29.48 1.23998 29.56ZM5.91998 31.01L5.80998 31.36C5.78998 31.44 5.69998 31.49 5.61998 31.46L1.86998 30.31C1.78998 30.28 1.73998 30.2 1.76998 30.12L1.87998 29.76C1.90998 29.68 1.98998 29.63 2.06998 29.66L5.81998 30.81C5.89998 30.83 5.94998 30.92 5.91998 31V31.01Z" fill="#F8F5EA"/>
<path d="M6.87 28.5101C6.45 29.5601 5.55 29.8201 4.5 29.4001L3.96 29.1901C2.91 28.7701 2.43 27.9601 2.85 26.9101C3.27 25.8601 4.18 25.5901 5.23 26.0101L5.77 26.2301C6.82 26.6501 7.3 27.4701 6.88 28.5201L6.87 28.5101ZM4.97 26.6301C4.24 26.3401 3.66 26.4501 3.39 27.1201C3.13 27.7801 3.47 28.2601 4.2 28.5501L4.74 28.7601C5.47 29.0501 6.05 28.9501 6.32 28.2801C6.58 27.6201 6.24 27.1301 5.51 26.8401L4.97 26.6201V26.6301Z" fill="#F8F5EA"/>
<path d="M9.21998 23.5201L9.04998 23.8401C9.00998 23.9201 8.90998 23.9401 8.83998 23.9001L6.60998 22.7001C5.91998 22.3301 5.58998 22.4501 5.30998 22.9601C5.15998 23.2501 5.08998 23.6201 5.07998 24.0201L7.94998 25.5601C8.01998 25.6001 8.04998 25.7001 8.00998 25.7701L7.82998 26.1001C7.78998 26.1701 7.69998 26.2001 7.62998 26.1601L4.16998 24.3001C4.08998 24.2601 4.05998 24.1701 4.09998 24.1001L4.27998 23.7601C4.31998 23.6901 4.40998 23.6601 4.47998 23.7101L4.60998 23.7801C4.60998 23.2901 4.65998 22.9301 4.87998 22.5301C5.31998 21.7201 6.01998 21.6201 6.92998 22.1101L9.15998 23.3101C9.23998 23.3501 9.25998 23.4501 9.21998 23.5201Z" fill="#F8F5EA"/>
<path d="M11.3 20.3901L11.1 20.6801C11.05 20.7501 10.96 20.7701 10.89 20.7201L10.75 20.6301C10.72 21.0501 10.64 21.4601 10.39 21.8201C10.02 22.3601 9.45 22.7001 8.65 22.1501L8.57 22.1001C7.88 21.6301 7.82 21.0001 8.59 19.8701L8.91 19.4001L8.65 19.2301C8.12 18.8701 7.81 18.9201 7.47 19.4201C7.19 19.8301 7 20.1501 6.86 20.4201C6.86 20.4301 6.85 20.4401 6.84 20.4501C6.8 20.5101 6.74 20.5501 6.66 20.5001L6.44 20.3501C6.37 20.3001 6.36 20.2301 6.41 20.1301C6.55 19.8401 6.71 19.5201 7 19.0901C7.6 18.2101 8.29 18.1601 9.04 18.6701L11.26 20.1901C11.33 20.2401 11.35 20.3301 11.3 20.4001V20.3901ZM9.32 19.6601L9 20.1301C8.48 20.9001 8.51 21.2201 8.96 21.5301L9.04 21.5801C9.5 21.8901 9.76 21.7601 10.02 21.3901C10.22 21.1001 10.31 20.7801 10.35 20.3601L9.33 19.6601H9.32Z" fill="#F8F5EA"/>
<path d="M12.33 19.1L12.08 19.41C12.03 19.47 11.94 19.48 11.88 19.42L7.58999 15.99C7.52999 15.94 7.50999 15.86 7.55999 15.79L7.80999 15.48C7.85999 15.42 7.93999 15.41 8.00999 15.46L12.3 18.89C12.36 18.94 12.39 19.03 12.34 19.09L12.33 19.1Z" fill="#F8F5EA"/>
<path d="M15.69 15.5801C14.81 16.4001 13.68 16.4901 12.52 15.2401L11.84 14.5101C10.67 13.2601 10.83 12.1501 11.71 11.3201C12.59 10.4901 13.71 10.4101 14.88 11.6601L15.56 12.3801C16.73 13.6301 16.58 14.7401 15.7 15.5701L15.69 15.5801ZM14.35 12.1501C13.47 11.2101 12.75 11.2101 12.13 11.7801C11.52 12.3501 11.46 13.0801 12.35 14.0301L13.03 14.7501C13.91 15.6901 14.64 15.6901 15.26 15.1101C15.87 14.5401 15.92 13.8101 15.04 12.8701L14.36 12.1501H14.35Z" fill="#F8F5EA"/>
<path d="M16.95 9.6501C16.67 9.8701 16.47 10.1301 16.3 10.5501L18.26 13.1101C18.31 13.1701 18.3 13.2801 18.23 13.3301L17.93 13.5601C17.87 13.6101 17.77 13.5901 17.72 13.5301L15.34 10.4101C15.29 10.3401 15.29 10.2501 15.36 10.2001L15.65 9.9801C15.72 9.9301 15.81 9.9401 15.86 10.0101L15.96 10.1401C16.1 9.6901 16.32 9.4001 16.6 9.1901C16.68 9.1201 16.76 9.1301 16.81 9.2001L17 9.4501C17.05 9.5201 17.04 9.5901 16.95 9.6501Z" fill="#F8F5EA"/>
<path d="M20.44 7.33007L20.24 7.52007C20.44 7.57007 20.66 7.70007 20.89 8.05007L20.92 8.10007C21.37 8.81007 21.18 9.49007 20.19 10.1301C19.85 10.3501 19.59 10.4401 19.35 10.4801C19.27 10.6001 19.27 10.7101 19.33 10.8001C19.4 10.9101 19.49 10.9401 19.66 10.8801L20.78 10.5101C21.52 10.2701 22.24 10.0601 22.63 10.6701L22.66 10.7201C23.06 11.3401 22.89 11.9901 21.82 12.6701C20.8 13.3301 20.08 13.2301 19.67 12.5901L19.63 12.5301C19.4 12.1701 19.4 11.7401 19.52 11.4501H19.46C19.2 11.5001 18.97 11.3401 18.84 11.1401C18.73 10.9601 18.69 10.7201 18.81 10.5001C18.49 10.4401 18.24 10.2701 18.03 9.94007L18 9.89007C17.63 9.31007 17.59 8.54007 18.71 7.82007L20.13 6.91007C20.21 6.86007 20.32 6.88007 20.37 6.96007L20.47 7.13007C20.52 7.21007 20.5 7.27007 20.43 7.33007H20.44ZM20.32 8.41007C20.07 8.02007 19.7 7.83007 19 8.27007C18.27 8.73007 18.34 9.16007 18.57 9.52007L18.6 9.57007C18.78 9.86007 19.15 10.1501 19.9 9.67007C20.6 9.23007 20.6 8.84007 20.35 8.45007L20.32 8.40007V8.41007ZM22.07 11.0301C21.91 10.7701 21.63 10.8001 20.96 11.0301L20.11 11.3101C20.03 11.5901 20 11.8401 20.22 12.1701L20.26 12.2301C20.49 12.5901 20.85 12.6801 21.57 12.2301C22.31 11.7601 22.35 11.4401 22.12 11.0901L22.09 11.0401L22.07 11.0301Z" fill="#F8F5EA"/>
<path d="M25.58 8.88996L25.26 9.04996C25.18 9.08996 25.09 9.04996 25.06 8.97996L24.98 8.82996C24.74 9.17996 24.47 9.49996 24.08 9.68996C23.49 9.97996 22.83 9.98996 22.4 9.11996L22.36 9.03996C21.99 8.28996 22.24 7.69996 23.47 7.09996L23.98 6.84996L23.84 6.56996C23.55 5.98996 23.25 5.88996 22.72 6.14996C22.27 6.36996 21.95 6.55996 21.69 6.71996C21.67 6.71996 21.67 6.72996 21.65 6.73996C21.59 6.76996 21.51 6.77996 21.47 6.68996L21.35 6.44996C21.31 6.36996 21.35 6.30996 21.43 6.24996C21.69 6.05996 21.99 5.85996 22.46 5.62996C23.42 5.15996 24.04 5.44996 24.45 6.25996L25.64 8.66996C25.68 8.74996 25.64 8.83996 25.57 8.87996L25.58 8.88996ZM24.2 7.27996L23.69 7.52996C22.85 7.93996 22.73 8.23996 22.97 8.72996L23.01 8.80996C23.25 9.30996 23.55 9.31996 23.95 9.12996C24.27 8.96996 24.5 8.73996 24.75 8.38996L24.2 7.27996Z" fill="#F8F5EA"/>
<path d="M29.4 7.42007L29.05 7.55007C28.97 7.58007 28.88 7.54007 28.85 7.46007L27.98 5.08007C27.72 4.35007 27.39 4.21007 26.84 4.41007C26.54 4.52007 26.24 4.76007 25.96 5.05007L27.07 8.11007C27.1 8.18007 27.06 8.28007 26.98 8.31007L26.62 8.44007C26.55 8.47007 26.46 8.42007 26.43 8.35007L25.09 4.66007C25.06 4.58007 25.09 4.49007 25.17 4.47007L25.53 4.34007C25.61 4.31007 25.69 4.36007 25.72 4.43007L25.77 4.57007C26.09 4.20007 26.37 3.97007 26.8 3.82007C27.67 3.50007 28.26 3.91007 28.61 4.87007L29.48 7.25007C29.51 7.33007 29.46 7.42007 29.39 7.45007L29.4 7.42007Z" fill="#F8F5EA"/>
<path d="M29.71 2.2501L29.33 2.3501C29.25 2.3701 29.16 2.3201 29.14 2.2401L28.98 1.6401C28.96 1.5601 29.01 1.4701 29.09 1.4501L29.47 1.3401C29.55 1.3201 29.64 1.3701 29.66 1.4501L29.82 2.0501C29.84 2.1301 29.79 2.2201 29.71 2.2401V2.2501ZM30.99 6.9901L30.63 7.0901C30.55 7.1101 30.46 7.0601 30.44 6.9801L29.41 3.1901C29.39 3.1101 29.43 3.0201 29.52 3.0001L29.88 2.9001C29.96 2.8801 30.05 2.9301 30.07 3.0101L31.1 6.8001C31.12 6.8801 31.08 6.9701 30.99 6.9901Z" fill="#F8F5EA"/>
<path d="M34.67 6.19006L32.38 6.64006C32.06 6.70006 31.88 6.53006 31.84 6.31006L31.81 6.17006C31.77 5.96006 31.79 5.84006 31.89 5.65006L33.37 2.84006C33.37 2.84006 33.39 2.79006 33.39 2.77006C33.39 2.74006 33.36 2.72006 33.3 2.73006L31.46 3.09006C31.38 3.11006 31.29 3.05006 31.28 2.97006L31.23 2.71006C31.21 2.63006 31.27 2.55006 31.35 2.53006L33.58 2.10006C33.89 2.04006 34.03 2.16006 34.08 2.39006L34.12 2.57006C34.15 2.73006 34.12 2.85006 34.03 3.02006L32.53 5.90006C32.53 5.90006 32.5 5.97006 32.51 5.99006C32.51 6.03006 32.53 6.05006 32.58 6.04006L34.58 5.65006C34.66 5.63006 34.75 5.69006 34.76 5.77006L34.81 6.03006C34.83 6.11006 34.77 6.20006 34.69 6.21006L34.67 6.19006Z" fill="#F8F5EA"/>
<path d="M38.27 5.81008L37.91 5.84008C37.83 5.84008 37.75 5.78008 37.74 5.70008L37.72 5.53008C37.37 5.78008 37 5.98008 36.57 6.01008C35.92 6.07008 35.3 5.84008 35.21 4.89008V4.80008C35.13 3.97008 35.57 3.52008 36.93 3.39008L37.5 3.34008L37.47 3.03008C37.41 2.39008 37.17 2.18008 36.57 2.24008C36.07 2.29008 35.71 2.35008 35.4 2.41008C35.38 2.41008 35.38 2.41008 35.36 2.41008C35.29 2.41008 35.22 2.40008 35.21 2.30008L35.19 2.03008C35.19 1.95008 35.23 1.89008 35.34 1.87008C35.65 1.79008 36 1.71008 36.52 1.66008C37.58 1.56008 38.06 2.06008 38.15 2.96008L38.4 5.63008C38.4 5.71008 38.35 5.79008 38.26 5.80008L38.27 5.81008ZM37.56 3.82008L36.99 3.87008C36.06 3.95008 35.84 4.18008 35.89 4.73008V4.82008C35.95 5.37008 36.22 5.49008 36.67 5.45008C37.02 5.42008 37.33 5.28008 37.68 5.05008L37.57 3.82008H37.56Z" fill="#F8F5EA"/>
<path d="M41.22 5.77005C41.06 5.79005 40.87 5.82005 40.72 5.82005C40.01 5.83005 39.67 5.65005 39.66 4.80005L39.62 2.11005L38.87 2.04005C38.79 2.04005 38.72 1.99005 38.72 1.90005V1.69005C38.72 1.61005 38.78 1.55005 38.86 1.55005H39.61L39.6 0.780049C39.6 0.700049 39.65 0.640049 39.74 0.620049L40.14 0.550049H40.16C40.22 0.550049 40.28 0.600049 40.28 0.680049V1.52005L41.13 1.51005C41.21 1.51005 41.29 1.58005 41.29 1.66005V1.92005C41.29 2.00005 41.23 2.08005 41.14 2.08005L40.31 2.10005L40.35 4.79005C40.35 5.21005 40.46 5.27005 40.77 5.27005H41.2C41.31 5.27005 41.36 5.29005 41.37 5.37005V5.64005C41.37 5.71005 41.34 5.75005 41.24 5.77005H41.22Z" fill="#F8F5EA"/>
<path d="M42.56 5.84999L42.19 5.82999C42.11 5.82999 42.04 5.74999 42.05 5.66999L42.28 1.74999C42.28 1.66999 42.36 1.59999 42.44 1.60999L42.81 1.62999C42.89 1.62999 42.96 1.70999 42.95 1.79999L42.72 5.71999C42.72 5.80999 42.64 5.86999 42.56 5.86999V5.84999ZM42.86 0.939989L42.47 0.919989C42.39 0.919989 42.32 0.839989 42.33 0.759989L42.37 0.149989C42.37 0.0699885 42.45 -1.14648e-05 42.53 0.00998854L42.92 0.0299885C43 0.0299885 43.07 0.109989 43.06 0.189989L43.02 0.809988C43.02 0.889988 42.94 0.959989 42.86 0.949989V0.939989Z" fill="#F8F5EA"/>
<path d="M45.21 6.15991C44.09 6.00991 43.61 5.18991 43.77 4.06991L43.85 3.48991C44 2.36991 44.67 1.69991 45.8 1.85991C46.92 2.00991 47.4 2.82991 47.25 3.94991L47.17 4.52991C47.02 5.64991 46.34 6.31991 45.21 6.15991ZM46.57 3.85991C46.68 3.07991 46.43 2.53991 45.71 2.43991C45 2.34991 44.62 2.78991 44.51 3.57991L44.43 4.15991C44.33 4.93991 44.56 5.47991 45.28 5.57991C45.99 5.66991 46.38 5.22991 46.48 4.43991L46.56 3.85991H46.57Z" fill="#F8F5EA"/>
<path d="M50.62 7.24997L50.26 7.15997C50.18 7.13997 50.13 7.05997 50.15 6.96997L50.78 4.50997C50.97 3.75997 50.78 3.45997 50.21 3.30997C49.9 3.22997 49.52 3.25997 49.13 3.34997L48.33 6.49997C48.31 6.57997 48.22 6.62997 48.14 6.60997L47.77 6.51997C47.69 6.49997 47.65 6.41997 47.66 6.33997L48.63 2.52997C48.65 2.44997 48.73 2.38997 48.81 2.41997L49.18 2.51997C49.26 2.53997 49.31 2.61997 49.28 2.69997L49.24 2.83997C49.71 2.70997 50.07 2.68997 50.51 2.79997C51.41 3.02997 51.67 3.68997 51.42 4.68997L50.79 7.14997C50.77 7.22997 50.68 7.27997 50.6 7.25997L50.62 7.24997Z" fill="#F8F5EA"/>
<path d="M57.14 4.00995L56.8 3.86995C56.47 3.72995 56.32 3.78995 56.17 4.17995L55.96 4.68995L56.71 4.99995C56.79 5.02995 56.82 5.10995 56.79 5.18995L56.68 5.46995C56.65 5.53995 56.58 5.56995 56.5 5.53995L55.75 5.22995L54.41 8.47995C54.38 8.54995 54.29 8.58995 54.21 8.55995L53.86 8.41995C53.78 8.38995 53.75 8.28995 53.78 8.21995L55.12 4.96995L54.46 4.60995C54.38 4.56995 54.35 4.49995 54.38 4.42995L54.46 4.23995C54.49 4.16995 54.57 4.13995 54.65 4.16995L55.34 4.45995L55.55 3.94995C55.87 3.18995 56.33 3.10995 56.95 3.36995C57.14 3.44995 57.25 3.51995 57.33 3.57995C57.4 3.62995 57.44 3.68995 57.42 3.74995L57.32 3.97995C57.29 4.05995 57.23 4.05995 57.15 4.02995L57.14 4.00995Z" fill="#F8F5EA"/>
<path d="M56.95 9.91001C55.95 9.38001 55.78 8.45001 56.31 7.45001L56.58 6.93001C57.11 5.93001 57.96 5.53001 58.96 6.06001C59.96 6.58001 60.13 7.52001 59.61 8.52001L59.34 9.04001C58.81 10.04 57.95 10.43 56.95 9.91001ZM59.02 8.21001C59.38 7.52001 59.34 6.93001 58.69 6.59001C58.06 6.26001 57.55 6.55001 57.18 7.25001L56.91 7.77001C56.55 8.46001 56.59 9.05001 57.23 9.38001C57.86 9.71001 58.38 9.43001 58.75 8.72001L59.02 8.20001V8.21001Z" fill="#F8F5EA"/>
<path d="M62.57 8.89002C62.27 8.70002 61.95 8.60002 61.51 8.59002L59.77 11.3C59.73 11.36 59.63 11.39 59.56 11.35L59.24 11.15C59.18 11.11 59.16 11.01 59.2 10.94L61.32 7.65002C61.37 7.58002 61.46 7.55002 61.53 7.60002L61.83 7.80002C61.9 7.84002 61.91 7.94002 61.87 8.01002L61.78 8.15002C62.25 8.13002 62.6 8.24002 62.89 8.43002C62.98 8.49002 63 8.56002 62.95 8.63002L62.78 8.89002C62.73 8.96002 62.66 8.97002 62.57 8.91002V8.89002Z" fill="#F8F5EA"/>
<path d="M63.62 14.4199C63.21 14.0699 62.95 13.7599 62.72 13.4999C62.64 13.3999 62.65 13.3599 62.7 13.2999L62.9 13.0699C62.96 13.0099 63.03 13.0199 63.08 13.0699C63.08 13.0699 63.09 13.0799 63.1 13.0799C63.35 13.3399 63.76 13.7099 64.03 13.9499C64.73 14.5499 65.16 14.4299 65.51 14.0299C65.76 13.7399 65.73 13.4299 65.49 12.6499L65.22 11.8199C64.97 11.0299 64.96 10.4999 65.36 10.0399C65.97 9.32989 66.76 9.43989 67.64 10.2099C67.98 10.5099 68.4 10.9299 68.59 11.1499C68.64 11.2099 68.65 11.2799 68.6 11.3399L68.38 11.5899C68.33 11.6499 68.26 11.6499 68.2 11.5899C68.2 11.5899 68.1967 11.5866 68.19 11.5799C67.95 11.3399 67.56 10.9699 67.22 10.6799C66.62 10.1599 66.25 10.0699 65.88 10.4899C65.64 10.7699 65.69 11.0899 65.91 11.7399L66.17 12.5199C66.5 13.4999 66.46 14.0299 66.06 14.4999C65.58 15.0599 64.76 15.4099 63.61 14.4199H63.62Z" fill="#F8F5EA"/>
<path d="M66.86 17.4599C66.74 17.3699 66.59 17.2299 66.48 17.1299C65.98 16.6199 65.88 16.2499 66.48 15.6599L68.4 13.7799L67.94 13.1899C67.89 13.1299 67.88 13.0499 67.94 12.9899L68.09 12.8499C68.15 12.7899 68.23 12.7999 68.29 12.8499L68.81 13.3799L69.35 12.8499C69.4 12.7999 69.49 12.7899 69.56 12.8499L69.89 13.0899C69.89 13.0899 69.89 13.0899 69.9 13.1099C69.94 13.1599 69.94 13.2299 69.89 13.2799L69.29 13.8699L69.87 14.4599C69.93 14.5199 69.93 14.6199 69.87 14.6799L69.68 14.8599C69.62 14.9199 69.52 14.9199 69.46 14.8599L68.88 14.2599L66.96 16.1399C66.66 16.4299 66.69 16.5599 66.91 16.7699L67.21 17.0799C67.28 17.1599 67.3 17.2199 67.25 17.2699L67.06 17.4599C67.01 17.5099 66.95 17.5099 66.87 17.4599H66.86Z" fill="#F8F5EA"/>
<path d="M69.09 20.1099L68.87 19.8299C68.82 19.7599 68.82 19.6699 68.89 19.6099L69.02 19.4999C68.62 19.3499 68.25 19.1499 67.98 18.8199C67.56 18.3099 67.41 17.6699 68.15 17.0599L68.22 16.9999C68.87 16.4799 69.5 16.5899 70.36 17.6499L70.72 18.0899L70.96 17.8899C71.46 17.4799 71.49 17.1699 71.11 16.6999C70.79 16.3099 70.54 16.0399 70.32 15.8199C70.32 15.8099 70.31 15.7999 70.3 15.7899C70.26 15.7399 70.23 15.6699 70.3 15.6099L70.51 15.4399C70.58 15.3899 70.65 15.3999 70.73 15.4699C70.97 15.6799 71.23 15.9299 71.56 16.3299C72.23 17.1599 72.09 17.8399 71.39 18.4099L69.31 20.1099C69.24 20.1599 69.15 20.1499 69.09 20.0899V20.1099ZM70.35 18.4099L69.99 17.9699C69.4 17.2499 69.08 17.1899 68.66 17.5299L68.59 17.5899C68.16 17.9399 68.21 18.2299 68.49 18.5799C68.71 18.8499 69 19.0299 69.39 19.1899L70.35 18.4099Z" fill="#F8F5EA"/>
<path d="M71.34 23.4701L71.14 23.1601C71.09 23.0901 71.11 22.9901 71.19 22.9501L73.32 21.5801C73.97 21.1601 74.03 20.8101 73.71 20.3201C73.54 20.0501 73.23 19.8101 72.9 19.6101L70.17 21.3801C70.11 21.4201 70 21.4101 69.96 21.3301L69.76 21.0101C69.72 20.9401 69.74 20.8501 69.81 20.8001L73.1 18.6701C73.17 18.6201 73.27 18.6401 73.31 18.7101L73.52 19.0301C73.57 19.1001 73.54 19.1901 73.47 19.2401L73.35 19.3201C73.78 19.5501 74.07 19.7701 74.31 20.1601C74.81 20.9401 74.55 21.6001 73.69 22.1501L71.56 23.5301C71.49 23.5801 71.39 23.5501 71.35 23.4801L71.34 23.4701Z" fill="#F8F5EA"/>
<path d="M73.23 26.9501C72.93 26.5701 72.69 26.1601 72.48 25.7401C71.97 24.7101 72.4 23.9101 73.43 23.3901L73.93 23.1401C75.01 22.6001 75.86 22.8001 76.36 23.8001C76.47 24.0101 76.61 24.3501 76.69 24.6401L77.97 24.0001C78.04 23.9701 78.13 24.0001 78.17 24.0701L78.34 24.4201C78.38 24.4901 78.34 24.5701 78.27 24.6101L73.45 27.0101C73.36 27.0501 73.3 27.0601 73.22 26.9401L73.23 26.9501ZM76.19 24.9001C76.12 24.6501 75.95 24.2901 75.84 24.0701C75.5 23.3901 74.97 23.3801 74.24 23.7501L73.75 24.0001C73 24.3701 72.69 24.8001 73.03 25.4801C73.14 25.7101 73.33 26.0401 73.47 26.2601L76.2 24.9001H76.19Z" fill="#F8F5EA"/>
<path d="M74.55 30.54L74.43 30.21C74.4 30.13 74.44 30.04 74.52 30.01L74.68 29.95C74.35 29.68 74.06 29.38 73.91 28.97C73.68 28.36 73.74 27.69 74.64 27.36L74.73 27.33C75.51 27.04 76.06 27.35 76.54 28.63L76.74 29.17L77.03 29.06C77.64 28.83 77.77 28.55 77.56 27.99C77.39 27.52 77.23 27.19 77.09 26.91C77.09 26.89 77.09 26.89 77.08 26.87C77.06 26.81 77.06 26.73 77.15 26.7L77.4 26.61C77.48 26.58 77.54 26.61 77.59 26.71C77.75 26.99 77.92 27.3 78.1 27.79C78.47 28.79 78.12 29.38 77.27 29.7L74.75 30.64C74.67 30.67 74.58 30.63 74.55 30.55V30.54ZM76.29 29.33L76.09 28.79C75.77 27.92 75.49 27.76 74.97 27.95L74.89 27.98C74.37 28.18 74.32 28.47 74.48 28.89C74.6 29.22 74.81 29.48 75.13 29.76L76.29 29.33Z" fill="#F8F5EA"/>
<path d="M78.86 32.1799C78.76 31.8399 78.59 31.5499 78.26 31.2399L75.15 32.0999C75.07 32.1199 74.98 32.0699 74.96 31.9899L74.86 31.6299C74.84 31.5499 74.89 31.4699 74.97 31.4499L78.76 30.4099C78.84 30.3899 78.93 30.4299 78.95 30.5099L79.05 30.8599C79.07 30.9399 79.02 31.0199 78.94 31.0399L78.78 31.0799C79.14 31.3799 79.33 31.6899 79.42 32.0299C79.45 32.1399 79.42 32.1999 79.33 32.2299L79.03 32.3099C78.95 32.3299 78.89 32.2899 78.86 32.1899V32.1799Z" fill="#F8F5EA"/>
<path d="M76.04 36.5499C75.86 36.0999 75.74 35.6399 75.65 35.1799C75.44 34.0499 76.08 33.3899 77.21 33.1799L77.76 33.0799C78.95 32.8599 79.72 33.2799 79.92 34.3899C79.96 34.6199 80.01 34.9799 80.01 35.2899L81.42 35.0299C81.49 35.0099 81.57 35.0599 81.59 35.1499L81.66 35.5299C81.67 35.6099 81.63 35.6799 81.54 35.6899L76.24 36.6799C76.14 36.6999 76.08 36.6799 76.04 36.5499ZM79.45 35.3899C79.45 35.1299 79.38 34.7299 79.34 34.4899C79.2 33.7499 78.7 33.5899 77.89 33.7399L77.35 33.8399C76.52 33.9899 76.11 34.3199 76.25 35.0599C76.3 35.3199 76.39 35.6899 76.46 35.9399L79.46 35.3799L79.45 35.3899Z" fill="#F8F5EA"/>
<path d="M76.13 38.1701L76.09 37.8001C76.09 37.7201 76.14 37.6401 76.23 37.6301L80.14 37.2201C80.22 37.2201 80.3 37.2701 80.31 37.3601L80.35 37.7301C80.35 37.8101 80.3 37.8901 80.21 37.9001L76.31 38.3101C76.23 38.3101 76.15 38.2601 76.14 38.1701H76.13ZM81.02 37.6801L80.98 37.2901C80.98 37.2101 81.03 37.1301 81.12 37.1201L81.73 37.0601C81.81 37.0601 81.89 37.1101 81.9 37.2001L81.94 37.5901C81.94 37.6701 81.89 37.7501 81.8 37.7601L81.19 37.8201C81.11 37.8201 81.03 37.7701 81.02 37.6801Z" fill="#F8F5EA"/>
<path d="M76.33 41.9499L76.26 39.6299C76.25 39.2999 76.45 39.1499 76.67 39.1499H76.82C77.03 39.1399 77.15 39.1799 77.33 39.3099L79.87 41.2199C79.87 41.2199 79.91 41.2499 79.94 41.2499C79.97 41.2499 79.99 41.2299 79.99 41.1699L79.93 39.2999C79.93 39.2199 80 39.1399 80.08 39.1399H80.34C80.42 39.1399 80.5 39.1999 80.5 39.2799L80.57 41.5499C80.57 41.8699 80.44 41.9899 80.21 41.9899H80.02C79.86 41.9999 79.74 41.9499 79.59 41.8299L76.99 39.8799C76.99 39.8799 76.93 39.8399 76.9 39.8399C76.86 39.8399 76.84 39.8399 76.84 39.8999L76.9 41.9399C76.9 42.0199 76.84 42.0999 76.75 42.0999H76.49C76.41 42.0999 76.33 42.0399 76.33 41.9599V41.9499Z" fill="#F8F5EA"/>
<path d="M76.13 45.62L76.16 45.27C76.16 45.19 76.24 45.12 76.32 45.13H76.49C76.3 44.76 76.17 44.36 76.2 43.93C76.25 43.27 76.57 42.7 77.53 42.76H77.62C78.45 42.83 78.83 43.34 78.73 44.71L78.69 45.28L79 45.3C79.65 45.34 79.88 45.14 79.93 44.54C79.97 44.04 79.96 43.67 79.95 43.36C79.95 43.35 79.95 43.34 79.95 43.32C79.95 43.25 79.98 43.18 80.08 43.19L80.35 43.21C80.43 43.21 80.48 43.27 80.48 43.38C80.51 43.7 80.53 44.05 80.5 44.58C80.42 45.65 79.86 46.04 78.95 45.98L76.27 45.79C76.19 45.79 76.12 45.71 76.13 45.62ZM78.21 45.24L78.25 44.67C78.32 43.74 78.13 43.48 77.58 43.44H77.49C76.94 43.4 76.77 43.65 76.74 44.09C76.72 44.44 76.8 44.77 76.98 45.15L78.22 45.24H78.21Z" fill="#F8F5EA"/>
<path d="M75.68 48.5199C75.68 48.3599 75.7 48.1599 75.72 48.0199C75.83 47.3199 76.07 47.0099 76.9 47.1399L79.56 47.5599L79.76 46.8399C79.78 46.7599 79.84 46.6999 79.92 46.7199L80.12 46.7499C80.2 46.7599 80.25 46.8299 80.23 46.9199L80.12 47.6599L80.87 47.7799C80.95 47.7899 81 47.8599 81 47.9399V48.3499V48.3699C80.99 48.4299 80.93 48.4799 80.85 48.4599L80.02 48.3299L79.89 49.1499C79.87 49.2299 79.8 49.2899 79.71 49.2799L79.45 49.2399C79.37 49.2299 79.31 49.1499 79.32 49.0599L79.45 48.2399L76.79 47.8199C76.37 47.7499 76.29 47.8499 76.25 48.1599L76.18 48.5799C76.16 48.6899 76.12 48.7399 76.05 48.7199L75.78 48.6799C75.71 48.6699 75.67 48.6199 75.67 48.5199H75.68Z" fill="#F8F5EA"/>
<path d="M75.41 49.8201L75.49 49.4601C75.51 49.3801 75.59 49.3201 75.67 49.3401L79.5 50.1901C79.58 50.2101 79.63 50.2901 79.62 50.3701L79.54 50.7301C79.52 50.8101 79.44 50.8701 79.36 50.8501L75.53 50.0001C75.45 49.9801 75.39 49.9001 75.41 49.8201ZM80.21 50.9001L80.29 50.5201C80.31 50.4401 80.39 50.3801 80.47 50.4001L81.07 50.5401C81.15 50.5601 81.2 50.6401 81.19 50.7201L81.11 51.1001C81.09 51.1801 81.01 51.2401 80.93 51.2201L80.33 51.0901C80.25 51.0701 80.19 50.9901 80.21 50.9101V50.9001Z" fill="#F8F5EA"/>
<path d="M74.68 52.3701C75.01 51.2901 75.89 50.9601 76.97 51.2901L77.53 51.4601C78.61 51.7901 79.15 52.5601 78.82 53.6401C78.49 54.7201 77.6 55.0601 76.52 54.7301L75.96 54.5601C74.88 54.2301 74.34 53.4501 74.67 52.3701H74.68ZM76.73 54.0901C77.48 54.3201 78.05 54.1701 78.26 53.4701C78.47 52.7801 78.09 52.3401 77.33 52.1101L76.77 51.9401C76.02 51.7101 75.45 51.8601 75.24 52.5501C75.03 53.2401 75.41 53.6901 76.16 53.9201L76.72 54.0901H76.73Z" fill="#F8F5EA"/>
<path d="M72.74 57.5001L72.89 57.1601C72.93 57.0801 73.02 57.0501 73.09 57.0801L75.41 58.0901C76.12 58.4001 76.44 58.2601 76.68 57.7201C76.81 57.4201 76.84 57.0401 76.82 56.6501L73.84 55.3501C73.77 55.3201 73.73 55.2301 73.76 55.1501L73.91 54.8001C73.94 54.7301 74.03 54.7001 74.11 54.7301L77.7 56.3001C77.78 56.3301 77.82 56.4201 77.78 56.5001L77.63 56.8501C77.6 56.9301 77.51 56.9601 77.43 56.9201L77.29 56.8601C77.34 57.3401 77.31 57.7101 77.12 58.1201C76.75 58.9701 76.06 59.1201 75.12 58.7101L72.8 57.7001C72.72 57.6701 72.69 57.5701 72.72 57.5001H72.74Z" fill="#F8F5EA"/>
<path d="M31.63 82.0601C30.75 82.0601 30.1 81.9601 29.7 81.8601C29.54 81.8201 29.48 81.7601 29.48 81.6401V80.7901C29.48 80.6501 29.55 80.5801 29.66 80.5801H29.71C30.18 80.6601 30.92 80.7201 31.5 80.7201C32.36 80.7201 32.73 80.3801 32.73 79.2901V79.2201C32.47 79.2701 31.98 79.3401 31.57 79.3401C30.25 79.3401 29.15 78.7801 29.15 77.1501V77.0801C29.15 75.5901 30.05 74.5901 31.74 74.5901C33.32 74.5901 34.37 75.5201 34.37 77.4801V78.9801C34.37 81.2001 33.31 82.0601 31.64 82.0601H31.63ZM32.72 77.4701C32.72 76.1401 32.3 75.8601 31.73 75.8601C31.16 75.8601 30.78 76.1101 30.78 77.0801V77.1501C30.78 77.9601 31.25 78.1701 31.83 78.1701C32.08 78.1701 32.5 78.1101 32.72 78.0701V77.4701Z" fill="#F8F5EA"/>
<path d="M37.98 82.0601C36.31 82.0601 35.34 81.1101 35.34 78.7501V77.9001C35.34 75.5401 36.31 74.5801 37.98 74.5801C39.65 74.5801 40.63 75.5401 40.63 77.9001V78.7501C40.63 81.1001 39.65 82.0601 37.98 82.0601ZM38.95 77.9101C38.95 76.3601 38.53 75.9801 37.98 75.9801C37.43 75.9801 37.02 76.3501 37.02 77.9101V78.7601C37.02 80.3101 37.43 80.6701 37.98 80.6701C38.53 80.6701 38.95 80.3101 38.95 78.7601V77.9101Z" fill="#F8F5EA"/>
<path d="M44.21 82.0601C42.54 82.0601 41.57 81.1101 41.57 78.7501V77.9001C41.57 75.5401 42.54 74.5801 44.21 74.5801C45.88 74.5801 46.86 75.5401 46.86 77.9001V78.7501C46.86 81.1001 45.88 82.0601 44.21 82.0601ZM45.18 77.9101C45.18 76.3601 44.76 75.9801 44.21 75.9801C43.66 75.9801 43.25 76.3501 43.25 77.9101V78.7601C43.25 80.3101 43.66 80.6701 44.21 80.6701C44.76 80.6701 45.18 80.3101 45.18 78.7601V77.9101Z" fill="#F8F5EA"/>
<path d="M49.78 80.5802V76.3602L48.5 76.9102C48.5 76.9102 48.41 76.9402 48.38 76.9402C48.31 76.9402 48.27 76.8902 48.27 76.8102V75.6902C48.27 75.6202 48.3 75.5802 48.37 75.5502L50.15 74.7102C50.22 74.6802 50.28 74.6702 50.38 74.6702H51.26C51.37 74.6702 51.45 74.7502 51.45 74.8602V80.5802H52.76C52.87 80.5802 52.96 80.6602 52.96 80.7702V81.7802C52.96 81.8902 52.87 81.9802 52.76 81.9802H48.48C48.37 81.9802 48.28 81.8902 48.28 81.7802V80.7702C48.28 80.6602 48.37 80.5802 48.48 80.5802H49.79H49.78Z" fill="#F8F5EA"/>
</svg>
