<svg width="85" height="75" viewBox="0 0 85 75" fill="none" xmlns="http://www.w3.org/2000/svg">
<path d="M24.78 20.79H21.92V29.73H24.78V20.79Z" fill="#F8F5EA"/>
<path d="M21.57 58.4601H27.72V43.0801H14.98V45.5801H25.22V55.9601H12.17C10.15 55.9601 8.51999 54.3201 8.51999 52.3101V40.0001C8.51999 37.9801 10.16 36.3501 12.17 36.3501H27.72V33.8501H12.17C8.76999 33.8501 6.01999 36.6101 6.01999 40.0001V52.3101C6.01999 55.7101 8.77999 58.4601 12.17 58.4601H21.56H21.57Z" fill="#F8F5EA"/>
<path d="M52.18 14.2699L51.66 17.5899H54.17L54.65 14.3699C54.7 14.0599 54.71 13.7699 54.69 13.4799C54.71 13.4499 54.73 13.4299 54.75 13.4399L57.16 17.5899H60.18V17.4199L57.89 13.6299C58.77 13.6299 59.3 12.9799 59.49 11.6899L59.93 8.63989H57.39L57.03 11.2899C56.97 11.6999 56.96 12.0099 57.02 12.2199C57.02 12.2499 56.99 12.2699 56.96 12.2699L54.64 8.63989H51.64V8.82989L53.88 12.2099C52.97 12.2099 52.41 12.8899 52.19 14.2599L52.18 14.2699Z" fill="#F8F5EA"/>
<path d="M28.45 11.0701C28.69 11.2701 28.81 11.6001 28.81 12.0901V17.5901H31.52V11.4701C31.52 10.3601 31.2 9.5901 30.57 9.1601C30.01 8.7901 29.07 8.6001 27.74 8.6001C27.29 8.6001 26.86 8.6101 26.45 8.6401C26.04 8.6701 25.63 8.7101 25.24 8.7701V10.9201C25.87 10.8201 26.44 10.7701 26.93 10.7701C27.68 10.7701 28.18 10.8701 28.45 11.0801V11.0701Z" fill="#F8F5EA"/>
<path d="M14.95 29.13C15.32 28.72 15.5 28.06 15.5 27.17V22.97H16.74C17 22.97 17.19 23 17.29 23.07C17.46 23.18 17.55 23.41 17.55 23.76V29.73H20.41V23.61C20.41 22.38 20.08 21.57 19.42 21.17C19 20.92 18.29 20.79 17.28 20.79H11.7V22.97H12.63V27.03C12.63 27.48 12.38 27.7 11.87 27.7C11.85 27.7 11.7 27.68 11.43 27.65V29.65C11.8 29.76 12.29 29.82 12.9 29.82C13.86 29.82 14.54 29.59 14.95 29.13Z" fill="#F8F5EA"/>
<path d="M41.4 17.6699C43.52 17.6699 44.92 17.4599 45.59 17.0299C46.34 16.5499 46.77 15.5299 46.87 13.9699L47.22 8.63988H44.5L44.17 13.8999C44.12 14.7199 43.9 15.2299 43.49 15.4499C43.18 15.6099 42.49 15.6899 41.42 15.6899C41.12 15.6899 40.86 15.6899 40.62 15.6599C40.38 15.6399 40.16 15.6199 39.96 15.5899L39.89 14.3099C39.98 14.3299 40.09 14.3499 40.24 14.3599C40.38 14.3699 40.55 14.3799 40.75 14.3799C41.48 14.3799 42.02 14.2699 42.35 14.0499C42.77 13.7799 43.01 13.2699 43.05 12.5199L43.28 8.62988H40.83L40.7 12.1399C40.7 12.5399 40.48 12.7399 40.07 12.7399C40.05 12.7399 40.01 12.7399 39.97 12.7299C39.93 12.7299 39.88 12.7099 39.82 12.6999L39.6 8.62988H36.86L37.42 17.3799C38.64 17.5599 39.96 17.6599 41.39 17.6599L41.4 17.6699Z" fill="#F8F5EA"/>
<path d="M45.12 20.91V23.06C45.79 22.96 46.39 22.91 46.91 22.91C47.7 22.91 48.24 23.01 48.52 23.22C48.77 23.42 48.9 23.75 48.9 24.24V29.74H51.78V23.62C51.78 22.51 51.44 21.74 50.77 21.31C50.18 20.94 49.18 20.75 47.77 20.75C47.3 20.75 46.84 20.76 46.4 20.79C45.96 20.82 45.54 20.86 45.12 20.92V20.91Z" fill="#F8F5EA"/>
<path d="M31.49 24.37C31.49 24.37 31.46 24.42 31.42 24.42L28.96 20.79H25.78V20.98L28.15 24.36C27.18 24.36 26.59 25.04 26.36 26.41L25.81 29.73H28.47L28.98 26.51C29.03 26.2 29.04 25.9 29.02 25.62C29.04 25.59 29.06 25.57 29.08 25.58L31.64 29.73H34.84V29.56L32.41 25.77C33.34 25.77 33.9 25.12 34.11 23.83L34.58 20.78H31.89L31.51 23.43C31.45 23.84 31.44 24.15 31.5 24.36L31.49 24.37Z" fill="#F8F5EA"/>
<path d="M37.3 23.05C37.42 23.14 37.48 23.33 37.48 23.62V27.62H35.63V29.74H40.35V23.48C40.35 22.48 40.13 21.77 39.68 21.35C39.28 20.97 38.66 20.78 37.83 20.78C36.82 20.78 36.15 20.83 35.8 20.93V23.01C35.95 22.94 36.26 22.91 36.7 22.91C36.97 22.91 37.17 22.96 37.29 23.05H37.3Z" fill="#F8F5EA"/>
<path d="M35.64 8.63989H32.94V17.5799H35.64V8.63989Z" fill="#F8F5EA"/>
<path d="M74.75 41.15V41.92C74.75 42.56 74.23 43.07 73.6 43.07H69.36V45.57H73.57C75.44 45.57 76.96 44.05 76.96 42.18V40.88C76.96 39.01 75.44 37.49 73.57 37.49H64.18V58.45H66.68V39.99H73.6C74.24 39.99 74.75 40.51 74.75 41.14V41.15Z" fill="#F8F5EA"/>
<path d="M34.44 58.4599H36.94V49.2499L40.98 58.4599H41.03H43.33V58.4499L34.44 39.3899V58.4599Z" fill="#F8F5EA"/>
<path d="M51.31 35.9101H51.29V35.9501L44.08 51.9401L35.89 33.8401H30.78V36.1601V36.3401V40.0001H30.79V58.4601H33.29V36.3401H34.44H34.45L44.08 57.2401L53.72 36.3401H54.95V58.4601H57.45V35.9501V35.9101V33.8401H52.28L51.31 35.9101Z" fill="#F8F5EA"/>
<path d="M47.13 58.46H47.19L51.29 49.1V58.46H53.79V39.24L44.85 58.46H47.13Z" fill="#F8F5EA"/>
<path d="M81.68 62.31H79.23C82.53 56.31 84.4 49.42 84.4 42.09C84.4 18.84 65.55 0 42.31 0C19.07 0 0.220001 18.84 0.220001 42.09C0.220001 49.42 2.1 56.31 5.4 62.31H3.88C2.55 62.31 1.47 63.39 1.47 64.72V72.58C1.47 73.91 2.55 74.99 3.88 74.99H81.68C83.01 74.99 84.09 73.91 84.09 72.58V64.72C84.09 63.39 83.01 62.31 81.68 62.31ZM2.43 42.09C2.43 31.44 6.58 21.42 14.11 13.89C21.64 6.36 31.66 2.21 42.31 2.21C52.96 2.21 62.98 6.36 70.51 13.89C78.04 21.42 82.19 31.44 82.19 42.09C82.19 49.25 80.29 56.2 76.68 62.31H7.94C4.33 56.19 2.43 49.24 2.43 42.09ZM11.27 72.34H9.24V67.44C9.24 67.09 9.14 66.85 8.96 66.73C8.85 66.65 8.68 66.62 8.43 66.62H7.26V70.33C7.26 71.04 7.12 71.57 6.85 71.89C6.55 72.24 6.02 72.42 5.29 72.42C4.87 72.42 4.52 72.38 4.24 72.32V70.92C4.42 70.94 4.43 70.94 4.44 70.94C4.94 70.94 5.21 70.68 5.21 70.21V66.62H4.45V65.08H8.86C9.65 65.08 10.22 65.18 10.53 65.38C11.02 65.69 11.27 66.34 11.27 67.32V72.35V72.34ZM14.84 72.34H12.81V65.08H14.84V72.34ZM20.7 72.34L18.62 68.85L18.54 68.83H18.51C18.51 68.83 18.39 68.84 18.33 68.94L18.31 68.98V69.03C18.33 69.26 18.31 69.5 18.28 69.75L17.88 72.34H16.02L16.44 69.71C16.61 68.63 17.04 68.11 17.75 68.11H18.05L16 65.08H18.33L20.34 68.15H20.43C20.53 68.15 20.61 68.09 20.63 67.99V67.95V67.91C20.59 67.76 20.6 67.51 20.65 67.18L20.94 65.07H22.82L22.46 67.47C22.3 68.49 21.9 68.98 21.23 68.98H20.95L23.03 72.33H20.7V72.34ZM26.23 68.99H24.2V65.08H26.23V68.99ZM32.67 72.34H30.63V67.84C30.63 67.38 30.5 67.05 30.26 66.86C30 66.66 29.54 66.56 28.85 66.56C28.47 66.56 28.03 66.59 27.55 66.66V65.16C27.84 65.12 28.14 65.09 28.45 65.07C28.81 65.05 29.18 65.03 29.56 65.03C30.68 65.03 31.47 65.18 31.92 65.48C32.42 65.81 32.68 66.43 32.68 67.3V72.33L32.67 72.34ZM39.57 72.34H33.84V70.86H36.98V67.77C36.98 67.27 36.85 66.94 36.58 66.79C36.34 66.65 35.88 66.58 35.18 66.58C34.93 66.58 34.69 66.58 34.46 66.61C34.29 66.62 34.13 66.64 33.97 66.66V65.17C34.19 65.13 34.44 65.11 34.74 65.09C35.1 65.07 35.53 65.05 36.01 65.05C37.09 65.05 37.85 65.19 38.28 65.46C38.77 65.77 39.02 66.38 39.02 67.25V70.86H39.57V72.34ZM42.78 72.34H40.74V68.44H42.78V72.34ZM46.73 72.34H44.69V67.84C44.69 67.29 44.51 66.92 44.14 66.75C43.87 66.62 43.36 66.56 42.56 66.56C42.19 66.56 41.84 66.57 41.51 66.6C41.24 66.62 40.98 66.65 40.73 66.69V65.16C41.03 65.12 41.38 65.09 41.79 65.06C42.26 65.03 42.82 65.02 43.44 65.02C44.62 65.02 45.46 65.18 45.93 65.5C46.47 65.85 46.74 66.53 46.74 67.53V72.34H46.73ZM56.62 66.61H55.78V72.33H53.74V66.61H50.87V65.07H56.62V66.61ZM62.9 72.34H60.86V67.84C60.86 67.38 60.73 67.05 60.49 66.86C60.23 66.66 59.77 66.56 59.08 66.56C58.7 66.56 58.26 66.59 57.78 66.66V65.16C58.07 65.12 58.37 65.09 58.68 65.07C59.04 65.05 59.41 65.03 59.79 65.03C60.91 65.03 61.7 65.18 62.16 65.48C62.66 65.81 62.92 66.43 62.92 67.3V72.33L62.9 72.34ZM72.62 69.43C72.53 70.69 72.18 71.52 71.58 71.9C71.03 72.24 69.83 72.42 68.03 72.42C66.85 72.42 65.75 72.35 64.73 72.21L64.26 65.09H66.32L66.51 68.51L66.75 68.56C66.75 68.56 66.84 68.57 66.86 68.57C67.31 68.57 67.56 68.33 67.57 67.91L67.68 65.09H69.49L69.3 68.22C69.26 68.79 69.08 69.19 68.76 69.39C68.5 69.56 68.06 69.64 67.46 69.64C67.29 69.64 67.15 69.64 67.03 69.63C66.92 69.63 66.82 69.61 66.76 69.59L66.55 69.54L66.63 70.97L66.76 70.99C66.93 71.01 67.13 71.03 67.34 71.05C67.55 71.06 67.79 71.07 68.05 71.07C69.01 71.07 69.62 71 69.91 70.85C70.31 70.64 70.54 70.16 70.58 69.41L70.86 65.1H72.9L72.61 69.45L72.62 69.43ZM80.97 72.34H77.65V70.85H78.93V67.68C78.93 66.72 78.37 66.52 77.89 66.52C77.53 66.52 77.06 66.7 76.86 67.54C76.83 67.69 76.8 67.93 76.75 68.23C76.71 68.54 76.66 68.93 76.6 69.4L76.28 72.33H74.32L74.68 69.66C74.76 69 74.79 68.55 74.77 68.28C74.72 67.72 74.49 66.68 74.05 65.09H76.05C76.2 65.57 76.32 66.04 76.39 66.49C76.4 66.59 76.49 66.66 76.6 66.66C76.69 66.66 76.77 66.6 76.79 66.51C76.96 65.9 77.22 65.48 77.55 65.27C77.8 65.1 78.17 65.02 78.66 65.02C79.45 65.02 80.02 65.19 80.37 65.53C80.77 65.91 80.97 66.56 80.97 67.47V72.34Z" fill="#F8F5EA"/>
<path d="M9.66998 40V52.31C9.66998 53.69 10.79 54.81 12.17 54.81H24.06V46.73H14.97V49.23H21.56V52.31H12.17V40H27.72V37.5H12.17C10.79 37.5 9.66998 38.62 9.66998 40Z" fill="#F8F5EA"/>
<path d="M73.15 20.79H70.29V25.78H73.15V20.79Z" fill="#F8F5EA"/>
<path d="M56.14 20.79H53.28V29.73H56.14V20.79Z" fill="#F8F5EA"/>
<path d="M69.23 20.79H66.37V25.78H69.23V20.79Z" fill="#F8F5EA"/>
<path d="M57.17 21L60.91 27.6201H57.46V29.74H65.07V29.4L63.09 25.97C64.15 25.97 64.79 25.29 65.02 23.93L65.53 20.8H62.85L62.43 23.6901C62.37 24.0701 62.37 24.36 62.42 24.59C62.4 24.62 62.37 24.6301 62.34 24.6201L60.37 20.8H57.17V21.01V21Z" fill="#F8F5EA"/>
<path d="M50.82 8.63989H48.12V13.6299H50.82V8.63989Z" fill="#F8F5EA"/>
<path d="M60.52 58.4601H63.02V36.3501H73.56C76.06 36.3501 78.1 38.3901 78.1 40.8901V42.1901C78.1 44.6901 76.06 46.7301 73.56 46.7301H69.35V49.2301H74.59C77.99 48.8701 80.63 46.0001 80.63 42.5101V40.5801C80.63 37.0901 77.98 34.2201 74.59 33.8601H60.51V58.4701L60.52 58.4601Z" fill="#F8F5EA"/>
</svg>
