<?xml version="1.0" encoding="UTF-8"?>
<svg id="Layer_2" xmlns="http://www.w3.org/2000/svg" viewBox="0 0 148.22 153.77">
  <defs>
    <style>
      .cls-1 {
        font-family: Poppins-Medium, 'Poppins Medium';
        font-size: 20px;
        font-weight: 500;
      }
    </style>
  </defs>
  <g id="Layer_1-2" data-name="Layer_1">
    <g>
      <g>
        <rect x="49.29" y="20.79" width="2.86" height="8.94"/>
        <path d="M48.94,58.46h6.15v-15.38h-12.74v2.5h10.24v10.38h-13.05c-2.02,0-3.65-1.64-3.65-3.65v-12.31c0-2.02,1.64-3.65,3.65-3.65h15.55v-2.5h-15.55c-3.4,0-6.15,2.76-6.15,6.15v12.31c0,3.4,2.76,6.15,6.15,6.15h9.39Z"/>
        <path d="M79.56,14.27l-.52,3.32h2.51l.48-3.22c.05-.31.06-.6.04-.89.02-.03.04-.05.06-.04l2.41,4.15h3.02v-.17l-2.29-3.79c.88,0,1.41-.65,1.6-1.94l.44-3.05h-2.54l-.36,2.65c-.06.41-.07.72-.01.93,0,.03-.03.05-.06.05l-2.32-3.63h-3v.19l2.24,3.38c-.91,0-1.47.68-1.69,2.05Z"/>
        <path d="M55.82,11.07c.24.2.36.53.36,1.02v5.5h2.71v-6.12c0-1.11-.32-1.88-.95-2.31-.56-.37-1.5-.56-2.83-.56-.45,0-.88.01-1.29.04-.41.03-.82.07-1.21.13v2.15c.63-.1,1.2-.15,1.69-.15.75,0,1.25.1,1.52.31Z"/>
        <path d="M42.33,29.13c.37-.41.55-1.07.55-1.96v-4.2h1.24c.26,0,.45.03.55.1.17.11.26.34.26.69v5.97h2.86v-6.12c0-1.23-.33-2.04-.99-2.44-.42-.25-1.13-.38-2.14-.38h-5.58v2.18h.93v4.06c0,.45-.25.67-.76.67-.02,0-.17-.02-.44-.05v2c.37.11.86.17,1.47.17.96,0,1.64-.23,2.05-.69Z"/>
        <path d="M68.77,17.67c2.12,0,3.52-.21,4.19-.64.75-.48,1.18-1.5,1.28-3.06l.35-5.33h-2.72l-.33,5.26c-.05.82-.27,1.33-.68,1.55-.31.16-1,.24-2.07.24-.3,0-.56,0-.8-.03-.24-.02-.46-.04-.66-.07l-.07-1.28c.09.02.2.04.35.05.14.01.31.02.51.02.73,0,1.27-.11,1.6-.33.42-.27.66-.78.7-1.53l.23-3.89h-2.45l-.13,3.51c0,.4-.22.6-.63.6-.02,0-.06,0-.1-.01-.04,0-.09-.02-.15-.03l-.22-4.07h-2.74l.56,8.75c1.22.18,2.54.28,3.97.28Z"/>
        <path d="M72.5,20.91v2.15c.67-.1,1.27-.15,1.79-.15.79,0,1.33.1,1.61.31.25.2.38.53.38,1.02v5.5h2.88v-6.12c0-1.11-.34-1.88-1.01-2.31-.59-.37-1.59-.56-3-.56-.47,0-.93.01-1.37.04-.44.03-.86.07-1.28.13Z"/>
        <path d="M58.87,24.37s-.03.05-.07.05l-2.46-3.63h-3.18v.19l2.37,3.38c-.97,0-1.56.68-1.79,2.05l-.55,3.32h2.66l.51-3.22c.05-.31.06-.61.04-.89.02-.03.04-.05.06-.04l2.56,4.15h3.2v-.17l-2.43-3.79c.93,0,1.49-.65,1.7-1.94l.47-3.05h-2.69l-.38,2.65c-.06.41-.07.72-.01.93Z"/>
        <path d="M64.68,23.05c.12.09.18.28.18.57v4h-1.85v2.12h4.72v-6.26c0-1-.22-1.71-.67-2.13-.4-.38-1.02-.57-1.85-.57-1.01,0-1.68.05-2.03.15v2.08c.15-.07.46-.1.9-.1.27,0,.47.05.59.14Z"/>
        <rect x="60.32" y="8.64" width="2.7" height="8.94"/>
        <path d="M102.12,41.15v.77c0,.64-.52,1.15-1.15,1.15h-4.24v2.5h4.21c1.87,0,3.39-1.52,3.39-3.39v-1.3c0-1.87-1.52-3.39-3.39-3.39h-9.39v20.96h2.5v-18.46h6.92c.64,0,1.15.52,1.15,1.15Z"/>
        <polygon points="61.82 58.46 64.32 58.46 64.32 49.25 68.35 58.46 68.41 58.46 70.71 58.46 70.71 58.45 61.82 39.39 61.82 58.46"/>
        <polygon points="78.69 35.91 78.67 35.91 78.67 35.95 71.46 51.94 63.26 33.84 58.15 33.84 58.15 36.16 58.15 36.34 58.15 40 58.17 40 58.17 58.46 60.67 58.46 60.67 36.34 61.82 36.34 61.82 36.34 71.46 57.24 81.09 36.34 82.32 36.34 82.32 58.46 84.82 58.46 84.82 35.95 84.82 35.91 84.82 33.84 79.65 33.84 78.69 35.91"/>
        <polygon points="74.51 58.46 74.56 58.46 78.67 49.1 78.67 58.46 81.17 58.46 81.17 39.24 72.22 58.46 74.51 58.46"/>
        <path d="M109.06,62.31h-2.45c3.3-6,5.17-12.89,5.17-20.22C111.78,18.84,92.93,0,69.69,0S27.6,18.84,27.6,42.09c0,7.33,1.88,14.22,5.18,20.22h-1.52c-1.33,0-2.41,1.08-2.41,2.41v7.86c0,1.33,1.08,2.41,2.41,2.41h77.8c1.33,0,2.41-1.08,2.41-2.41v-7.86c0-1.33-1.08-2.41-2.41-2.41ZM29.81,42.09c0-10.65,4.15-20.67,11.68-28.2,7.53-7.53,17.55-11.68,28.2-11.68s20.67,4.15,28.2,11.68c7.53,7.53,11.68,17.55,11.68,28.2,0,7.16-1.9,14.11-5.51,20.22H35.32c-3.61-6.12-5.51-13.07-5.51-20.22ZM38.65,72.34h-2.03v-4.9c0-.35-.1-.59-.28-.71-.11-.08-.28-.11-.53-.11h-1.17v3.71c0,.71-.14,1.24-.41,1.56-.3.35-.83.53-1.56.53-.42,0-.77-.04-1.05-.1v-1.4c.18.02.19.02.2.02.5,0,.77-.26.77-.73v-3.59h-.76v-1.54h4.41c.79,0,1.36.1,1.67.3.49.31.74.96.74,1.94v5.03ZM42.22,72.34h-2.03v-7.26h2.03v7.26ZM48.08,72.34l-2.08-3.49-.08-.02h-.03s-.12.01-.18.11l-.02.04v.05c.02.23,0,.47-.03.72l-.4,2.59h-1.86l.42-2.63c.17-1.08.6-1.6,1.31-1.6h.3l-2.05-3.03h2.33l2.01,3.07h.09c.1,0,.18-.06.2-.16v-.04s0-.04,0-.04c-.04-.15-.03-.4.02-.73l.29-2.11h1.88l-.36,2.4c-.16,1.02-.56,1.51-1.23,1.51h-.28l2.08,3.35h-2.33ZM53.61,68.99h-2.03v-3.91h2.03v3.91ZM60.05,72.34h-2.04v-4.5c0-.46-.13-.79-.37-.98-.26-.2-.72-.3-1.41-.3-.38,0-.82.03-1.3.1v-1.5c.29-.04.59-.07.9-.09.36-.02.73-.04,1.11-.04,1.12,0,1.91.15,2.36.45.5.33.76.95.76,1.82v5.03ZM66.95,72.34h-5.73v-1.48h3.14v-3.09c0-.5-.13-.83-.4-.98-.24-.14-.7-.21-1.4-.21-.25,0-.49,0-.72.03-.17.01-.33.03-.49.05v-1.49c.22-.04.47-.06.77-.08.36-.02.79-.04,1.27-.04,1.08,0,1.84.14,2.27.41.49.31.74.92.74,1.79v3.61h.55v1.48ZM70.16,72.34h-2.04v-3.9h2.04v3.9ZM74.1,72.34h-2.04v-4.5c0-.55-.18-.92-.55-1.09-.27-.13-.78-.19-1.58-.19-.37,0-.72.01-1.05.04-.27.02-.53.05-.78.09v-1.53c.3-.04.65-.07,1.06-.1.47-.03,1.03-.04,1.65-.04,1.18,0,2.02.16,2.49.48.54.35.81,1.03.81,2.03v4.81ZM83.99,66.61h-.84v5.72h-2.04v-5.72h-2.87v-1.54h5.75v1.54ZM90.28,72.34h-2.04v-4.5c0-.46-.13-.79-.37-.98-.26-.2-.72-.3-1.41-.3-.38,0-.82.03-1.3.1v-1.5c.29-.04.59-.07.9-.09.36-.02.73-.04,1.11-.04,1.12,0,1.91.15,2.37.45.5.33.76.95.76,1.82v5.03ZM100,69.43c-.09,1.26-.44,2.09-1.04,2.47-.55.34-1.75.52-3.55.52-1.18,0-2.28-.07-3.3-.21l-.47-7.12h2.06l.19,3.42.24.05s.09.01.11.01c.45,0,.7-.24.71-.66l.11-2.82h1.81l-.19,3.13c-.04.57-.22.97-.54,1.17-.26.17-.7.25-1.3.25-.17,0-.31,0-.43-.01-.11,0-.21-.02-.27-.04l-.21-.05.08,1.43.13.02c.17.02.37.04.58.06.21.01.45.02.71.02.96,0,1.57-.07,1.86-.22.4-.21.63-.69.67-1.44l.28-4.31h2.04l-.29,4.35ZM108.34,72.34h-3.32v-1.49h1.28v-3.17c0-.96-.56-1.16-1.04-1.16-.36,0-.83.18-1.03,1.02-.03.15-.06.39-.11.69-.04.31-.09.7-.15,1.17l-.32,2.93h-1.96l.36-2.67c.08-.66.11-1.11.09-1.38-.05-.56-.28-1.6-.72-3.19h2c.15.48.27.95.34,1.4.01.1.1.17.21.17.09,0,.17-.06.19-.15.17-.61.43-1.03.76-1.24.25-.17.62-.25,1.11-.25.79,0,1.36.17,1.71.51.4.38.6,1.03.6,1.94v4.87Z"/>
        <path d="M37.05,40v12.31c0,1.38,1.12,2.5,2.5,2.5h11.89s0-8.08,0-8.08h-9.09v2.5h6.59v3.08h-9.39v-12.31h15.55v-2.5h-15.55c-1.38,0-2.5,1.12-2.5,2.5Z"/>
        <rect x="97.66" y="20.79" width="2.86" height="4.99"/>
        <rect x="80.65" y="20.79" width="2.86" height="8.94"/>
        <rect x="93.74" y="20.79" width="2.86" height="4.99"/>
        <path d="M84.55,21l3.74,6.62h-3.45v2.12h7.61v-.34l-1.98-3.43c1.06,0,1.7-.68,1.93-2.04l.51-3.13h-2.68l-.42,2.89c-.06.38-.06.67-.01.9-.02.03-.05.04-.08.03l-1.97-3.82h-3.2v.21Z"/>
        <rect x="75.5" y="8.64" width="2.7" height="4.99"/>
        <path d="M87.9,58.46h2.5v-22.11h10.54c2.5,0,4.54,2.04,4.54,4.54v1.3c0,2.5-2.04,4.54-4.54,4.54h-4.21v2.5h5.24c3.4-.36,6.04-3.23,6.04-6.72v-1.93c0-3.49-2.65-6.36-6.04-6.72h-14.08v24.61Z"/>
      </g>
      <text class="cls-1" transform="translate(9.02 124.77)"><tspan x="0" y="0">Licensed by the</tspan><tspan x="-9.02" y="24">Ministry of Health</tspan></text>
    </g>
  </g>
</svg>