<?xml version="1.0" encoding="UTF-8"?>
<svg id="Layer_2" xmlns="http://www.w3.org/2000/svg" viewBox="0 0 95.44 127.77">
  <defs>
    <style>
      .cls-1 {
        font-family: Poppins-Medium, 'Poppins Medium';
        font-size: 20px;
        font-weight: 500;
      }
    </style>
  </defs>
  <g id="Layer_1-2" data-name="Layer_1">
    <g>
      <g>
        <path d="M85.8,40.42c-.62-1.03-1.74-1.66-2.94-1.66s-2.32.63-2.94,1.66c-2.26,3.75-9.64,16.43-9.64,22.01,0,6.94,5.64,12.58,12.58,12.58s12.58-5.64,12.58-12.58c0-5.57-7.38-18.25-9.64-22.01ZM82.07,67.85c-.27.59-.85.95-1.46.95-.22,0-.44-.05-.65-.14-2.64-1.17-4.35-3.8-4.35-6.68,0-1.45.75-3.63,2.3-6.67.4-.78,1.37-1.1,2.15-.7.79.4,1.1,1.37.7,2.15-1.76,3.45-1.95,4.8-1.95,5.21,0,1.62.96,3.1,2.45,3.76.81.36,1.17,1.3.81,2.11Z"/>
        <path d="M25.06,51.02c-3.07,3.07-3.07,8.09,0,11.17,3.1,3.09,8.11,3.09,11.19.02l32.51-32.51-18.36-4.02-25.34,25.34Z"/>
        <path d="M82.71,30.63c1.04,1.04,2.73,1.04,3.77,0,1.04-1.04,1.04-2.73,0-3.77L60.4.78c-1.04-1.04-2.73-1.04-3.77,0-1.04,1.04-1.04,2.73,0,3.77l.84.84L18.45,44.41c-6.73,6.73-6.73,17.67,0,24.4,6.73,6.73,17.67,6.73,24.4,0l39.02-39.02.84.84ZM39.08,65.04c-4.65,4.65-12.21,4.65-16.85,0-4.65-4.65-4.65-12.21,0-16.85L61.24,9.17l16.85,16.85-39.02,39.02Z"/>
      </g>
      <text class="cls-1" transform="translate(0 122.77)"><tspan x="0" y="0">Lab Tested</tspan></text>
    </g>
  </g>
</svg>