<?xml version="1.0" encoding="UTF-8"?>
<svg id="Layer_2" xmlns="http://www.w3.org/2000/svg" viewBox="0 0 120.88 128.77">
  <defs>
    <style>
      .cls-1 {
        font-family: Poppins-Medium, 'Poppins Medium';
        font-size: 20px;
        font-weight: 500;
      }
    </style>
  </defs>
  <g id="Layer_1-2" data-name="Layer_1">
    <g>
      <g>
        <g>
          <path d="M98.93,32.95c-.57-1.49-1.74-2.83-3.16-3.79-4.1-2.61-10.36-2.79-14.58-.44-2.31,1.18-3.82,3.5-4.29,5.9-.85,3.94-.63,8.62,2.4,11.57,3.54,3.1,8.68,3.79,13.26,2.51.22-.04.91-.21,1.38-.47l.13-.06c1.42-.59,2.78-1.55,3.79-2.86,2.34-3.41,2.5-8.53,1.07-12.38ZM91.48,41.79c-.16.75-.66,1.52-1.45,1.8-1.26.56-2.97.4-4.13-.25-.98-.68-1.1-1.83-1.23-2.92-.1-2.14-.25-4.4.35-6.36.47-1.21,1.76-1.52,2.94-1.61,1.23,0,2.43.19,3.19,1.18.47.71.44,1.64.54,2.48-.03,1.77.13,3.88-.19,5.68Z"/>
          <path d="M54.07,43.71c-1.04-.06-2.21.03-3.22-.1l.03-10.89.06-.09,3.13-.03c.03-1.77.06-3.66-.03-5.27l-11.9-.03-1.96.03c-.03,1.64-.03,3.57,0,5.24,1.07.03,2.08,0,3.13.1v10.55l-.03.43-3.13.06c-.07,1.73-.07,3.41,0,5.12h13.92v-5.12Z"/>
          <path d="M89.11,51.16c-1.32,1.89-3,3.72-4.83,5.15-.07.1-.26.06-.32-.03-.79-.49-1.64-.9-2.4-1.39,1.01-1.21,1.99-2.42,2.75-3.76h-.98c-.79,1.15-1.61,2.36-2.65,3.38-1.39-.56-2.65-1.05-4.07-1.43l-.16-.12c.22-.63.63-1.21.76-1.84h-.85l-.85,1.68c-1.86-.4-3.91-.62-5.81-.74-.1-.28.03-.68-.1-.93h-.82c-.07.37.09.65-.1.97-1.96.09-3.85.31-5.68.68l-.85-1.65c-.31,0-.66-.06-.88.03l.79,1.83-.09.09c-1.42.41-2.81.9-4.17,1.46l-.13-.06c-.89-.96-1.74-2.01-2.43-3.07-.16-.53-.79-.22-1.14-.28.76,1.37,1.77,2.58,2.78,3.82-.85.5-1.7,1.05-2.59,1.46-1.89-1.43-3.66-3.29-4.99-5.24-.38-.06-.63-.03-1.01,0,2.27,3.54,5.81,6.64,9.51,8.47,0,0,0-.03.03-.03.03,0,.09.06.03.09,2.5,1.21,5.15,2.08,7.96,2.45,9.69,1.27,18.94-2.85,24.31-10.98-.28-.03-.7-.03-1.01,0ZM75.95,53.95l.09-.06c1.36.31,2.65.74,3.85,1.33-1.01,1.15-2.31,2.14-3.5,2.98-.73.43-1.45.9-2.21,1.27l-1.35-.59.09-.21c1.14-1.52,2.15-3.07,3.03-4.72ZM69.73,53.02c1.8.03,3.6.22,5.27.62l.03.09c-.88,1.67-1.99,3.29-3.19,4.81-.54.06-1.04-.15-1.58-.18l-.54-.06c-.06-1.83-.1-3.44,0-5.27ZM63.64,53.58c1.64-.31,3.35-.56,5.11-.56l.03,5.25c-.67.15-1.39.15-2.02.31-1.29-1.53-2.37-3.17-3.28-4.88l.16-.12ZM58.55,55.25c1.23-.59,2.53-1.03,3.85-1.37l.13.03c.91,1.71,2.05,3.32,3.19,4.93-.44.25-.98.4-1.42.65-2.08-1.02-4.07-2.45-5.75-4.16v-.09ZM62.62,60.56c-2.65-.68-5.12-1.86-7.39-3.48v-.1c.76-.46,1.52-.96,2.34-1.3,1.8,1.77,3.66,3.11,5.68,4.38-.16.19-.41.37-.63.5ZM74.34,60.96c-3.35.72-7.07.75-10.42-.06-.06-.15.16-.19.25-.28,2.94-1.89,7.51-1.89,10.39.15.09.19-.16.13-.22.19ZM77.37,60.09l-1.48.46c-.25-.12-.47-.31-.7-.5l.06-.09c2.02-1.18,3.85-2.61,5.59-4.31.85.34,1.67.81,2.43,1.33-1.77,1.4-3.82,2.33-5.9,3.11Z"/>
          <path d="M49.24,24.94c.76-1.06,1.61-2.08,2.56-3.07.82-.78,1.58-1.52,2.46-2.08.82.53,1.74.97,2.53,1.46-.98,1.2-1.99,2.42-2.72,3.72.22.1.63.07.95,0,.79-1.15,1.64-2.3,2.65-3.32,1.36.5,2.68,1.02,4.07,1.4l.12.12-.79,1.8c.35.07.57.03.92,0,.28-.53.5-1.11.82-1.64,1.83.41,3.76.62,5.72.68.25.22.06.68.16.96h.85c.09-.31-.03-.65.09-.93,1.83-.1,3.76-.28,5.53-.72l.15.03.85,1.61c.29,0,.66.07.88-.06l-.79-1.8.07-.06c1.45-.37,2.81-.93,4.2-1.49.98,1.02,1.89,2.23,2.72,3.41.35,0,.69.03.95-.06-.38-.68-.85-1.36-1.36-1.95-.41-.59-.85-1.11-1.39-1.67v-.16l2.21-1.27.32-.12c1.92,1.46,3.63,3.22,4.99,5.18.38,0,.7.13,1.01-.03-4.23-6.33-11.21-10.4-18.75-10.98l-.03.06-.06-.06c-.85-.09-1.9-.13-2.81-.04-.35-.03-.76,0-1.17.04-7.58.59-14.55,4.47-18.91,11.07.32-.03.7.1,1.01-.03ZM62.34,22.21l-.13.03c-1.29-.34-2.56-.75-3.76-1.27l.06-.19c1.74-1.64,3.57-3.01,5.59-4.06.48.19.95.34,1.42.56l-.09.24c-1.2,1.49-2.15,3.1-3.09,4.69ZM68.62,23.05c-.88.12-1.67-.03-2.56-.1-.85-.12-1.92-.21-2.78-.5.92-1.7,1.99-3.35,3.28-4.86l2.02.27c.09,1.61.03,3.47.03,5.18ZM69.6,23.08c-.06-1.65-.03-3.48,0-5.18.63-.09,1.32-.19,1.96-.28,1.23,1.55,2.43,3.14,3.25,4.83-1.71.41-3.44.63-5.21.63ZM79.68,20.91c-1.23.53-2.5,1.02-3.85,1.31-.98-1.64-2.05-3.29-3.25-4.88.44-.24.98-.43,1.45-.68,2.06,1.02,4.04,2.48,5.71,4.15l-.06.1ZM75.63,15.6c2.65.68,5.15,1.86,7.42,3.47l-.06.12-2.18,1.21h-.16c-1.67-1.67-3.63-3.13-5.62-4.28.06-.22.38-.37.6-.53ZM74.37,15.29v.06c-2.75,1.98-7.2,2.17-10.1.34-.16-.12-.48-.18-.51-.4,3.35-.77,7.29-.84,10.61,0ZM55.11,19.14c1.99-1.46,4.2-2.54,6.54-3.29.1-.1.16-.19.28-.19v.06c.25.06.44-.22.66-.04.19.16.41.28.57.44-1.96,1.21-3.88,2.64-5.65,4.37-.85-.31-1.64-.77-2.4-1.3v-.06Z"/>
          <path d="M68.66,43.96c-2.97.81-6.19.19-8.34-2.04-.25-.31-.41-.68-.66-.99l-4.26.03c-.07,2.51-.1,5.4,0,7.88l4.73-.03.06-1.49c.54.25,1.07.56,1.61.83,3.28,1.37,7.51,1.68,10.76,0,2.37-1.3,3.63-3.81,3.28-6.52-.35-2.63-2.87-5.02-5.43-5.67l-7.64-2.2-.57-.28c-.25-.21-.41-.49-.35-.84.6-1.02,1.99-.71,3.03-.68,2.21.31,4.48,1.06,5.78,3.07,1.39,0,3,.03,4.51-.03.06-2.54-.03-4.77-.06-7.35-1.42-.03-3.16-.03-4.58.03-.06.37.06.89-.1,1.27l-1.45-.78c-3.47-1.46-8.34-1.61-11.49.65-2.05,1.49-2.68,4.16-2.15,6.51.41,2.23,2.56,3.88,4.61,4.65,2.81.99,5.75,1.71,8.59,2.67.28.13.66.41.6.75,0,.27-.29.43-.51.55Z"/>
        </g>
        <g>
          <path d="M38.81,51.1l.15.35c.03.07,0,.14-.08.17l-4.55,1.96c-.07.03-.14,0-.17-.06l-.15-.35c-.03-.07,0-.14.07-.17l4.55-1.96c.06-.03.15-.01.18.06Z"/>
          <path d="M37.46,47.43l.11.32c.02.07-.01.15-.09.18l-2.2.74c-.67.23-.8.52-.63,1.03.09.28.31.56.56.81l2.82-.95c.07-.02.15.01.18.09l.11.33c.02.07-.02.15-.09.17l-3.41,1.15c-.07.02-.15,0-.18-.08l-.11-.33c-.02-.07.02-.15.09-.17l.13-.04c-.33-.3-.53-.56-.67-.96-.27-.8.11-1.33,1-1.63l2.2-.74c.07-.02.15.01.18.09Z"/>
          <path d="M36.84,44.8c.05.13.11.31.14.44.15.63.06.97-.7,1.15l-2.39.57.08.68c.01.08-.02.14-.09.16l-.18.04c-.07.02-.13-.02-.15-.1l-.16-.67-.67.16c-.07.02-.13-.02-.16-.09l-.14-.34s0-.01,0-.02c-.01-.05.02-.12.09-.13l.75-.18-.18-.74c-.02-.07.03-.15.1-.17l.23-.05c.07-.02.15.03.17.1l.18.74,2.39-.57c.38-.09.41-.2.34-.47l-.09-.38c-.02-.1,0-.15.06-.17l.24-.06c.06-.01.11.01.15.1Z"/>
          <path d="M34.58,41.63l.32,2.34h.1c.83-.13,1.09-.5,1-1.14-.05-.4-.16-.92-.25-1.23,0-.01,0-.02,0-.04,0-.05.01-.12.08-.12l.24-.03c.09-.01.14,0,.18.12.13.39.23.77.29,1.23.11.8-.16,1.64-1.46,1.82l-.63.09c-1,.14-1.71-.32-1.85-1.32-.14-1.02.43-1.62,1.42-1.76l.38-.05c.09-.01.16.03.17.11ZM34.12,42.19c-.79.11-1.05.45-.97,1.07.08.6.47.89,1.22.78h.06s-.26-1.86-.26-1.86h-.06Z"/>
          <path d="M32.8,39.2c.02.32.12.61.34.95l2.94-.15c.07,0,.14.06.15.13l.02.34c0,.07-.06.14-.13.14l-3.58.19c-.08,0-.14-.05-.15-.13l-.02-.33c0-.08.05-.14.13-.14h.15c-.26-.35-.37-.66-.39-.98,0-.1.04-.15.12-.15h.29c.08-.02.12.03.13.13Z"/>
          <path d="M36.26,35.53v.34c-.02.08-.08.14-.16.13l-2.31-.09c-.71-.03-.94.2-.96.74-.01.29.09.63.24.96l2.96.12c.07,0,.14.07.13.15v.34c-.02.07-.08.13-.16.13l-3.58-.14c-.08,0-.14-.06-.13-.14v-.35c.02-.08.08-.13.16-.13h.13c-.2-.39-.29-.71-.28-1.12.03-.84.57-1.2,1.51-1.16l2.31.09c.08,0,.14.07.14.15Z"/>
          <path d="M36.72,32.09l-.05.32c-.01.08-.08.13-.16.12l-.15-.02c.15.36.24.73.18,1.12-.09.59-.43,1.09-1.29.97h-.08c-.75-.12-1.06-.62-.88-1.86l.08-.51-.28-.04c-.59-.09-.82.09-.9.63-.07.45-.09.79-.1,1.07,0,.01,0,.02,0,.03-.01.06-.04.12-.13.11l-.24-.04c-.08-.01-.11-.07-.11-.16,0-.29,0-.62.07-1.09.14-.96.69-1.28,1.51-1.16l2.43.36c.08.01.13.08.12.16ZM34.8,32.29l-.08.51c-.12.84.03,1.09.52,1.17h.08c.5.09.67-.13.73-.53.05-.32,0-.62-.14-.98l-1.12-.16Z"/>
          <path d="M37.34,29.49c-.01.14-.04.32-.07.45-.15.63-.39.89-1.14.71l-2.39-.57-.23.65c-.02.07-.08.12-.15.1l-.18-.04c-.08-.02-.11-.09-.09-.16l.16-.67-.67-.16c-.07-.02-.11-.08-.11-.16l.03-.37s0-.01,0-.02c.01-.05.07-.09.14-.07l.75.18.18-.74c.02-.07.1-.12.17-.1l.23.06c.07.02.12.09.1.17l-.18.74,2.39.57c.38.09.46,0,.52-.27l.09-.38c.02-.1.06-.14.13-.12l.24.06c.06.01.1.06.09.15Z"/>
          <path d="M33.39,27.02l-.1.34c-.02.07-.1.12-.18.09l-.54-.16c-.07-.02-.12-.1-.09-.18l.1-.34c.02-.07.1-.12.18-.09l.54.16c.07.02.12.1.09.18ZM37.68,28.35l-.1.32c-.02.07-.1.12-.18.09l-3.43-1.05c-.07-.02-.12-.1-.09-.18l.1-.32c.02-.07.1-.12.18-.09l3.43,1.05c.07.02.12.1.09.18Z"/>
          <path d="M38.54,26.06c-.38.96-1.21,1.2-2.17.81l-.49-.2c-.96-.38-1.4-1.12-1.02-2.08.38-.96,1.21-1.2,2.17-.82l.5.2c.96.38,1.39,1.13,1.01,2.09ZM36.81,24.34c-.66-.27-1.2-.17-1.44.45-.24.61.07,1.04.74,1.31l.49.2c.67.27,1.2.17,1.44-.44.24-.61-.07-1.05-.74-1.31l-.49-.2Z"/>
          <path d="M40.69,21.5l-.16.3c-.04.07-.12.09-.19.06l-2.04-1.09c-.63-.34-.93-.23-1.18.24-.14.26-.2.61-.21.97l2.62,1.4c.06.03.09.12.06.19l-.16.3c-.03.06-.12.09-.19.05l-3.16-1.7c-.07-.04-.1-.12-.06-.18l.16-.31c.04-.07.12-.09.19-.05l.12.06c0-.45.05-.78.24-1.14.4-.74,1.04-.83,1.87-.39l2.04,1.09c.07.04.09.12.06.19Z"/>
          <path d="M42.59,18.63l-.18.27c-.04.06-.13.08-.2.04l-.13-.09c-.03.39-.1.76-.33,1.09-.34.49-.86.8-1.59.3l-.07-.05c-.63-.43-.69-1.01.02-2.04l.29-.43-.23-.16c-.49-.33-.77-.28-1.08.17-.26.38-.43.67-.56.92,0,.01-.01.02-.02.03-.04.05-.09.09-.16.04l-.2-.14c-.06-.04-.07-.11-.03-.2.12-.27.27-.56.54-.95.55-.81,1.18-.85,1.86-.38l2.03,1.39c.06.04.08.13.04.2ZM40.78,17.97l-.29.43c-.48.7-.45.99-.04,1.28l.07.05c.42.29.66.16.89-.17.18-.27.27-.56.3-.94l-.93-.64Z"/>
          <path d="M43.53,17.46l-.23.29c-.04.05-.13.06-.19.01l-3.92-3.14c-.05-.04-.07-.12-.03-.18l.23-.29c.04-.05.12-.06.18-.02l3.92,3.14c.05.04.08.13.03.19Z"/>
          <path d="M46.6,14.24c-.81.75-1.83.83-2.9-.31l-.62-.66c-1.07-1.14-.93-2.16-.12-2.92.81-.76,1.83-.83,2.9.31l.62.66c1.07,1.14.93,2.16.12,2.91ZM45.38,11.11c-.81-.86-1.47-.86-2.03-.34-.56.52-.61,1.19.2,2.05l.62.66c.81.86,1.47.86,2.04.33.56-.52.6-1.18-.2-2.05l-.62-.66Z"/>
          <path d="M47.76,8.82c-.26.2-.44.44-.59.82l1.79,2.34c.04.05.04.15-.02.2l-.27.21c-.05.04-.14.03-.19-.03l-2.18-2.85c-.05-.06-.04-.15.02-.19l.26-.2c.06-.05.15-.03.19.03l.09.12c.13-.41.33-.68.58-.87.08-.06.14-.06.19.01l.18.23c.05.06.03.12-.04.18Z"/>
          <path d="M50.95,6.7l-.19.18c.18.05.38.16.59.48l.03.05c.41.65.24,1.27-.67,1.85-.31.2-.55.28-.76.32-.07.11-.07.21-.02.3.07.1.15.12.31.07l1.03-.34c.67-.22,1.34-.41,1.69.15l.03.05c.36.57.21,1.16-.77,1.78-.93.6-1.59.51-1.96-.07l-.04-.05c-.21-.33-.21-.72-.1-.99h-.05c-.24.05-.45-.1-.57-.28h0c-.1-.16-.13-.39-.03-.59-.29-.05-.52-.21-.71-.51l-.03-.05c-.34-.53-.37-1.24.65-1.89l1.3-.83c.07-.04.17-.03.22.04l.1.15c.05.08.02.13-.03.18ZM50.84,7.68c-.23-.35-.56-.53-1.2-.12-.67.42-.61.81-.4,1.15l.03.05c.16.26.5.53,1.18.09.64-.41.64-.76.41-1.11l-.03-.05ZM52.43,10.09c-.15-.23-.4-.21-1.02,0l-.78.26c-.08.26-.1.48.1.79l.03.05c.21.33.54.41,1.2,0,.68-.43.71-.72.5-1.04l-.03-.05Z"/>
          <path d="M55.64,8.12l-.29.14c-.07.03-.15,0-.19-.07l-.07-.14c-.22.32-.47.61-.82.79-.54.26-1.14.27-1.53-.52l-.04-.07c-.34-.68-.11-1.22,1.02-1.77l.47-.23-.12-.25c-.26-.53-.54-.62-1.03-.38-.41.2-.7.38-.94.53-.01,0-.02.01-.03.02-.06.03-.12.04-.16-.04l-.11-.22c-.04-.07,0-.13.07-.18.24-.17.51-.35.94-.57.88-.43,1.45-.16,1.82.58l1.09,2.2c.04.07,0,.15-.06.19ZM54.38,6.66l-.47.23c-.76.38-.88.65-.66,1.1l.04.07c.22.46.5.47.86.29.29-.14.51-.36.73-.67l-.5-1.01Z"/>
          <path d="M59.13,6.78l-.32.12c-.07.02-.15-.01-.18-.08l-.79-2.17c-.24-.67-.54-.79-1.04-.61-.28.1-.55.32-.8.58l1.01,2.79c.02.07-.01.15-.08.18l-.32.12c-.07.02-.15-.01-.17-.09l-1.23-3.38c-.02-.07,0-.15.08-.18l.33-.12c.07-.03.15.01.17.09l.05.13c.29-.34.55-.54.94-.69.79-.29,1.33.08,1.65.96l.79,2.17c.02.07-.01.15-.09.18Z"/>
          <path d="M59.42,2.06l-.35.09c-.07.02-.15-.02-.17-.1l-.15-.54c-.02-.07.02-.15.1-.17l.35-.1c.07-.02.15.02.17.1l.15.54c.02.07-.02.15-.1.17ZM60.59,6.39l-.33.09c-.07.02-.15-.02-.17-.1l-.94-3.46c-.02-.07.02-.15.1-.17l.32-.09c.07-.02.15.02.17.1l.94,3.46c.02.07-.02.15-.1.17Z"/>
          <path d="M63.95,5.65l-2.09.41c-.3.06-.46-.1-.5-.3l-.02-.13c-.04-.19-.02-.3.07-.48l1.35-2.57s.02-.05.02-.07c0-.03-.02-.05-.08-.04l-1.68.33c-.08.02-.15-.03-.17-.11l-.04-.24c-.02-.07.04-.15.11-.16l2.03-.4c.28-.06.41.05.45.26l.03.17c.03.14,0,.26-.09.41l-1.37,2.63s-.02.06-.02.09c0,.03.02.05.07.04l1.83-.36c.08-.02.15.04.16.11l.05.24c.01.07-.04.15-.11.16Z"/>
          <path d="M67.24,5.31l-.32.03c-.08,0-.15-.05-.15-.13v-.15c-.33.23-.67.41-1.06.44-.6.05-1.17-.15-1.25-1.03v-.09c-.08-.76.33-1.17,1.58-1.29l.52-.05-.02-.28c-.05-.59-.27-.77-.82-.72-.46.04-.79.1-1.07.15-.01,0-.02,0-.04,0-.06,0-.13-.01-.13-.1l-.02-.24c0-.08.04-.12.13-.15.28-.08.6-.15,1.07-.19.97-.09,1.41.37,1.49,1.19l.23,2.44c0,.08-.05.15-.13.15ZM66.59,3.49l-.52.05c-.85.08-1.06.29-1.01.78v.08c.05.5.31.61.71.58.32-.03.6-.15.92-.37l-.1-1.13Z"/>
          <path d="M69.94,5.28c-.14.02-.32.04-.46.04-.65.01-.96-.15-.97-.93l-.04-2.46-.68-.07c-.08,0-.13-.05-.14-.13v-.19c0-.08.05-.13.13-.13h.68s-.01-.7-.01-.7c0-.07.05-.13.12-.14l.37-.06h.02c.06,0,.11.05.11.12v.77s.77-.01.77-.01c.08,0,.14.06.14.14v.24c0,.08-.06.14-.13.14h-.76s.04,2.47.04,2.47c0,.39.1.44.39.44h.39c.1,0,.15.02.15.09v.25c0,.06-.03.1-.12.12Z"/>
          <path d="M71.16,5.34l-.34-.02c-.08,0-.13-.07-.13-.15l.21-3.58c0-.08.07-.13.15-.13l.34.02c.08,0,.13.07.13.15l-.21,3.58c0,.08-.07.14-.15.13ZM71.44.86l-.36-.02c-.08,0-.13-.07-.13-.15l.03-.56c0-.08.07-.14.15-.13l.36.02c.08,0,.13.07.13.15l-.03.56c0,.08-.07.14-.15.13Z"/>
          <path d="M73.59,5.63c-1.03-.14-1.46-.89-1.32-1.91l.07-.53c.14-1.03.75-1.63,1.78-1.49,1.03.14,1.46.89,1.33,1.91l-.07.53c-.14,1.03-.76,1.63-1.79,1.49ZM74.83,3.52c.1-.71-.13-1.2-.78-1.29-.65-.08-.99.32-1.09,1.04l-.07.53c-.1.71.12,1.2.78,1.29.65.09,1-.32,1.1-1.04l.07-.53Z"/>
          <path d="M78.53,6.62l-.33-.08c-.08-.02-.12-.1-.1-.17l.57-2.25c.18-.69,0-.96-.52-1.09-.29-.07-.63-.04-.99.03l-.73,2.88c-.02.07-.1.12-.17.1l-.34-.09c-.07-.02-.11-.09-.1-.17l.89-3.48c.02-.08.09-.12.16-.1l.34.09c.08.02.12.09.1.17l-.03.13c.43-.12.76-.14,1.16-.04.82.21,1.06.81.83,1.72l-.57,2.25c-.02.07-.1.12-.17.1Z"/>
          <path d="M84.49,3.67l-.31-.13c-.3-.13-.43-.07-.58.28l-.2.47.68.28c.07.03.1.1.07.17l-.1.25c-.03.07-.1.09-.17.06l-.68-.28-1.22,2.97c-.03.06-.11.1-.18.08l-.32-.13c-.07-.03-.1-.12-.08-.18l1.23-2.97-.6-.33c-.07-.04-.1-.1-.08-.17l.07-.18c.03-.06.1-.09.17-.07l.63.26.19-.47c.29-.7.71-.77,1.28-.53.18.07.27.13.35.19.06.05.1.1.08.16l-.09.21c-.03.07-.09.08-.16.05Z"/>
          <path d="M84.32,9.06c-.92-.48-1.07-1.33-.59-2.25l.25-.47c.48-.92,1.26-1.28,2.18-.79.92.48,1.07,1.33.59,2.25l-.25.48c-.48.92-1.27,1.27-2.18.79ZM86.2,7.51c.33-.63.29-1.17-.3-1.48-.58-.3-1.04-.04-1.38.6l-.25.48c-.33.63-.29,1.17.29,1.48.58.31,1.05.04,1.39-.6l.25-.47Z"/>
          <path d="M89.45,8.13c-.27-.17-.56-.26-.97-.27l-1.59,2.47c-.04.06-.13.09-.19.04l-.29-.18c-.06-.04-.08-.13-.04-.19l1.94-3.01c.04-.07.12-.09.19-.05l.28.18c.07.04.08.13.04.19l-.08.12c.43-.02.75.08,1.01.25.08.05.1.12.06.19l-.16.24c-.04.07-.11.07-.19.02Z"/>
          <path d="M90.41,13.18c-.37-.32-.62-.6-.82-.84-.08-.09-.07-.12-.02-.18l.18-.21c.05-.06.12-.05.16,0,0,0,.01.01.02.01.23.23.6.58.85.79.64.55,1.03.44,1.35.07.23-.26.2-.55-.02-1.26l-.25-.76c-.23-.72-.24-1.2.13-1.63.56-.65,1.28-.54,2.09.15.31.27.7.66.87.86.04.06.06.12.01.17l-.2.23c-.04.05-.11.05-.16,0t-.01-.01c-.22-.22-.58-.55-.89-.82-.55-.47-.88-.56-1.22-.17-.22.25-.17.55.02,1.15l.24.72c.3.9.27,1.38-.1,1.81-.44.51-1.18.84-2.24-.07Z"/>
          <path d="M93.37,15.96c-.11-.09-.25-.21-.34-.3-.45-.46-.55-.8,0-1.34l1.75-1.72-.42-.54c-.05-.06-.06-.13,0-.18l.14-.13c.05-.05.13-.05.18,0l.48.49.49-.48s.13-.05.19,0l.3.22s0,0,.01.01c.04.04.04.11-.01.16l-.55.54.53.54c.05.05.05.15,0,.2l-.17.17c-.05.05-.15.05-.2,0l-.53-.54-1.75,1.72c-.27.27-.25.38-.05.58l.27.28c.07.07.08.13.03.18l-.18.17s-.1.05-.18,0Z"/>
          <path d="M95.41,18.38l-.2-.25c-.05-.06-.04-.15.02-.2l.12-.1c-.37-.14-.7-.32-.95-.62-.38-.46-.52-1.05.16-1.61l.07-.05c.59-.48,1.17-.38,1.95.6l.33.4.22-.18c.46-.37.49-.66.14-1.09-.29-.35-.52-.6-.73-.8,0-.01-.01-.02-.02-.03-.04-.05-.06-.11,0-.17l.19-.16c.06-.05.12-.04.2.03.22.19.46.42.76.79.62.76.48,1.38-.16,1.9l-1.9,1.55c-.06.05-.15.04-.2-.02ZM96.56,16.83l-.33-.4c-.54-.66-.83-.71-1.21-.4l-.07.05c-.39.32-.35.59-.09.91.2.25.46.41.82.56l.88-.72Z"/>
          <path d="M97.47,21.45l-.18-.28c-.04-.06-.02-.15.04-.2l1.94-1.26c.6-.39.65-.71.36-1.15-.16-.25-.43-.46-.74-.65l-2.49,1.61c-.06.04-.15.02-.2-.04l-.19-.29c-.04-.06-.02-.15.05-.19l3.01-1.95c.07-.04.15-.03.19.04l.19.29c.04.07.02.15-.04.19l-.11.07c.39.21.65.42.88.76.46.71.22,1.31-.56,1.82l-1.94,1.26c-.06.04-.15.02-.2-.04Z"/>
          <path d="M99.2,24.63c-.27-.35-.49-.72-.68-1.1-.47-.94-.07-1.67.87-2.15l.45-.23c.99-.49,1.77-.31,2.22.6.1.2.23.5.31.77l1.17-.58c.06-.03.14,0,.18.06l.16.32c.03.06,0,.14-.06.17l-4.4,2.2c-.08.04-.13.04-.21-.06ZM101.9,22.76c-.07-.23-.22-.56-.32-.76-.31-.62-.79-.63-1.47-.29l-.45.23c-.69.34-.97.73-.66,1.35.1.21.28.51.4.72l2.5-1.24Z"/>
          <path d="M100.4,27.91l-.11-.3c-.03-.07.01-.15.08-.18l.15-.05c-.3-.25-.56-.52-.7-.89-.21-.56-.15-1.17.67-1.47l.08-.03c.71-.27,1.22.02,1.66,1.19l.18.49.26-.1c.55-.21.67-.47.48-.98-.16-.43-.3-.73-.43-.99,0-.01,0-.02-.01-.03-.02-.06-.02-.13.06-.16l.23-.09c.07-.03.13,0,.18.09.15.25.3.54.46.99.34.92.02,1.46-.76,1.75l-2.3.85c-.07.03-.15-.01-.18-.08ZM101.99,26.81l-.18-.49c-.3-.8-.55-.94-1.02-.77l-.08.03c-.48.18-.52.45-.38.83.11.31.31.54.59.79l1.06-.39Z"/>
          <path d="M104.34,29.41c-.09-.31-.25-.57-.54-.86l-2.84.78c-.07.02-.15-.02-.17-.1l-.09-.33c-.02-.07.03-.15.1-.16l3.46-.95c.07-.02.15.02.17.09l.09.32c.02.07-.02.15-.1.17l-.14.04c.33.27.51.56.59.87.03.1,0,.15-.08.18l-.28.07c-.07.02-.13-.01-.15-.11Z"/>
          <path d="M101.76,33.41c-.16-.41-.27-.83-.35-1.25-.19-1.03.39-1.63,1.43-1.83l.5-.09c1.09-.2,1.79.18,1.97,1.19.04.21.08.54.08.82l1.29-.24c.07-.01.14.03.15.11l.07.35c.01.07-.03.13-.11.15l-4.84.9c-.09.02-.14,0-.19-.12ZM104.88,32.35c0-.24-.06-.6-.1-.82-.13-.68-.59-.82-1.33-.68l-.5.09c-.76.14-1.13.43-1.01,1.12.04.24.13.57.19.8l2.75-.51Z"/>
          <path d="M101.85,34.89l-.03-.34c0-.08.05-.15.12-.15l3.57-.37c.08,0,.15.05.15.12l.04.34c0,.08-.05.15-.13.15l-3.57.37c-.08,0-.15-.05-.16-.12ZM106.32,34.44l-.04-.36c0-.08.05-.15.13-.15l.56-.06c.08,0,.15.05.15.12l.04.36c0,.08-.05.15-.12.16l-.56.06c-.08,0-.15-.05-.15-.13Z"/>
          <path d="M102.03,38.34l-.06-2.12c-.01-.31.18-.44.37-.44h.13c.2-.01.3.03.46.14l2.32,1.75s.04.03.06.03c.03,0,.05-.02.05-.07l-.05-1.71c0-.08.06-.14.14-.15h.24c.08,0,.14.05.15.13l.06,2.07c0,.29-.12.4-.33.4h-.17c-.15.01-.26-.04-.39-.15l-2.37-1.78s-.06-.03-.08-.03c-.03,0-.05,0-.05.06l.06,1.86c0,.08-.06.14-.14.15h-.24c-.08,0-.14-.05-.15-.13Z"/>
          <path d="M101.84,41.7l.02-.32c0-.08.07-.13.15-.13h.15c-.17-.34-.29-.7-.27-1.09.04-.6.34-1.13,1.22-1.07h.08c.76.06,1.1.53,1.02,1.78l-.04.52.28.02c.59.04.81-.15.85-.7.03-.46.03-.79.02-1.08,0-.01,0-.02,0-.04,0-.06.03-.12.12-.12l.25.02c.08,0,.12.06.12.16.03.29.05.62.02,1.09-.07.98-.59,1.33-1.42,1.28l-2.45-.17c-.08,0-.14-.07-.13-.15ZM103.75,41.35l.04-.52c.06-.85-.11-1.09-.61-1.12h-.08c-.51-.04-.66.19-.68.6-.02.32.05.62.21.97l1.13.08Z"/>
          <path d="M101.43,44.35c0-.14.02-.33.04-.46.1-.64.32-.92,1.08-.8l2.43.38.18-.66c.02-.07.07-.12.15-.11l.19.03c.08.01.12.07.1.15l-.1.68.68.11c.07.01.12.07.12.15v.37s0,.01,0,.02c-.01.05-.07.1-.13.09l-.76-.12-.12.75c-.01.08-.09.13-.16.12l-.24-.04c-.08-.01-.13-.09-.12-.16l.12-.75-2.43-.38c-.38-.06-.45.03-.5.31l-.06.39c-.02.1-.05.14-.12.13l-.24-.04c-.06-.01-.1-.05-.1-.14Z"/>
          <path d="M101.19,45.54l.07-.33c.02-.08.09-.12.17-.11l3.5.78c.08.02.12.09.11.17l-.07.33c-.02.07-.09.12-.17.11l-3.51-.78c-.08-.02-.12-.09-.11-.17ZM105.57,46.53l.08-.35c.02-.07.09-.12.17-.11l.55.12c.07.02.12.09.11.17l-.08.35c-.02.08-.09.12-.17.11l-.55-.12c-.08-.02-.12-.09-.11-.17Z"/>
          <path d="M100.52,47.87c.3-.99,1.11-1.29,2.1-.99l.51.16c.99.3,1.48,1.01,1.18,2-.3.99-1.11,1.3-2.1.99l-.51-.16c-.99-.3-1.48-1.01-1.18-2ZM102.39,49.43c.68.21,1.21.07,1.4-.56.19-.63-.15-1.03-.85-1.24l-.51-.16c-.69-.21-1.21-.07-1.4.56-.19.63.15,1.04.84,1.25l.51.16Z"/>
          <path d="M98.75,52.55l.13-.31c.03-.07.12-.1.19-.07l2.12.92c.65.29.94.15,1.16-.34.12-.27.15-.62.13-.98l-2.72-1.19c-.06-.03-.1-.11-.07-.18l.14-.32c.03-.06.11-.1.18-.07l3.28,1.44c.07.03.11.11.07.18l-.14.32c-.03.07-.11.1-.18.07l-.12-.05c.05.44.02.77-.15,1.15-.34.77-.97.91-1.83.54l-2.12-.93c-.07-.03-.1-.12-.07-.19Z"/>
        </g>
        <g>
          <path d="M61.17,75c-.81,0-1.4-.09-1.77-.18-.14-.04-.2-.09-.2-.2v-.78c0-.13.06-.19.16-.19h.04c.43.07,1.1.13,1.64.13.79,0,1.12-.31,1.12-1.31v-.06c-.23.05-.68.11-1.06.11-1.21,0-2.22-.51-2.22-2v-.06c0-1.36.82-2.28,2.37-2.28,1.45,0,2.41.85,2.41,2.64v1.37c0,2.03-.97,2.82-2.5,2.82ZM62.17,70.81c0-1.22-.39-1.47-.91-1.47s-.87.23-.87,1.11v.06c0,.74.43.93.96.93.23,0,.61-.05.82-.09v-.55Z"/>
          <path d="M66.97,75c-1.53,0-2.42-.87-2.42-3.02v-.77c0-2.16.89-3.04,2.42-3.04s2.42.88,2.42,3.04v.77c0,2.15-.9,3.02-2.42,3.02ZM67.86,71.2c0-1.42-.38-1.76-.89-1.76s-.88.34-.88,1.76v.77c0,1.42.38,1.75.88,1.75s.89-.33.89-1.75v-.77Z"/>
          <path d="M72.67,75c-1.53,0-2.41-.87-2.41-3.02v-.77c0-2.16.89-3.04,2.41-3.04s2.42.88,2.42,3.04v.77c0,2.15-.9,3.02-2.42,3.02ZM73.56,71.2c0-1.42-.39-1.76-.89-1.76s-.88.34-.88,1.76v.77c0,1.42.38,1.75.88,1.75s.89-.33.89-1.75v-.77Z"/>
          <path d="M77.76,73.65v-3.86l-1.17.5s-.08.02-.11.02c-.06,0-.1-.04-.1-.12v-1.02c0-.06.03-.1.09-.13l1.62-.76c.06-.02.12-.04.21-.04h.81c.1,0,.17.07.17.17v5.23h1.19c.1,0,.18.07.18.17v.92c0,.1-.08.18-.18.18h-3.91c-.1,0-.18-.08-.18-.18v-.92c0-.1.08-.17.18-.17h1.19Z"/>
        </g>
      </g>
      <text class="cls-1" transform="translate(0 123.77)"><tspan x="0" y="0">ISO 9001-2015</tspan></text>
    </g>
  </g>
</svg>