<?xml version="1.0" encoding="UTF-8"?>
<svg id="Layer_2" xmlns="http://www.w3.org/2000/svg" viewBox="0 0 102.94 85.37">
  <defs>
    <style>
      .cls-1 {
        stroke: #232730;
        stroke-miterlimit: 10;
        stroke-width: 2px;
      }
    </style>
  </defs>
  <g id="Layer_1-2" data-name="Layer_1">
    <g>
      <path class="cls-1" d="M79.06,22.59l-10.97-19.71c-.51-.92-1.47-1.5-2.53-1.51l-23.69-.37h-.02c-.34,0-.66.18-.84.47,0,0,0,0,0,0l-12.16,20.33c-.54.9-.56,2.02-.05,2.94l11.52,20.7s0,0,0,0c.16.3.47.48.81.5,0,0,.02,0,.03,0h0s24.82.39,24.82.39h.02c.34,0,.66-.18.84-.47l12.17-20.33c.54-.9.56-2.03.05-2.94ZM73.68,23.01l-18.02-.29c-.7-.01-1.35-.4-1.69-1.01l-8.77-15.75c-.74-1.33.24-2.95,1.75-2.93l18.02.29c.7.01,1.35.4,1.69,1.01l8.77,15.75c.74,1.33-.24,2.95-1.75,2.93ZM40.08,6.85c.78-1.3,2.67-1.27,3.41.05l9.32,16.75-.93,1.55-8.92,14.9c-.78,1.3-2.67,1.27-3.41-.05l-8.77-15.75c-.34-.62-.33-1.37.03-1.97l9.26-15.47ZM64.32,44.36l-18.02-.28c-1.52-.02-2.44-1.68-1.66-2.98l9.26-15.47c.36-.6,1.02-.97,1.72-.96l18.02.29c1.52.02,2.44,1.68,1.66,2.98l-9.26,15.47c-.36.6-1.02.97-1.72.96Z"/>
      <path class="cls-1" d="M58.01,52.01l-4.19-6.5c-.53-.83-1.44-1.33-2.43-1.35l-8.49-.13c-.7-.01-1.35-.4-1.69-1.01l-2.4-4.32s0,0,0,0l-4.24-7.62c-.55-.98-1.6-1.56-2.72-1.51l-16.02.79c-1.05.05-1.99.66-2.48,1.6L1.11,55.79c-.05.09-.08.19-.09.28,0,0,0,.02,0,.03-.02.12-.01.24.02.35,0,.01,0,.02,0,.04.01.05.03.1.05.15,0,0,0,0,0,0,.02.04.04.08.06.11l15.15,23.49c.18.28.49.45.82.45.02,0,.03,0,.05,0l26.78-1.32c1.05-.05,1.99-.66,2.48-1.6l11.73-22.84c.48-.94.43-2.06-.14-2.94ZM16.49,32.27l14.85-.73c.75-.04,1.45.35,1.82,1.01l3.18,5.72c.32.58.33,1.27.03,1.86l-6.57,12.79c-.32.63-.95,1.03-1.66,1.07l-21.12,1.04c-1.51.07-2.54-1.52-1.85-2.87l9.66-18.81c.32-.63.95-1.03,1.66-1.07ZM7.12,56.96l21.12-1.04c.7-.03,1.37.31,1.75.9l11.46,17.77c.82,1.27-.04,2.96-1.56,3.04l-21.12,1.04c-.7.03-1.37-.31-1.75-.9l-11.46-17.77c-.82-1.27.04-2.96,1.56-3.04ZM43.09,73.54l-11.46-17.77c-.38-.59-.42-1.34-.1-1.97l4.77-9.29c.72-1.4,2.71-1.43,3.47-.06h0c.51.92,1.48,1.5,2.53,1.51l8.53.13c.66.01,1.27.35,1.63.9l3.61,5.59c.38.59.42,1.34.1,1.97l-9.66,18.81c-.69,1.35-2.59,1.44-3.41.17Z"/>
      <path class="cls-1" d="M101.94,48.41h0s0-.03,0-.04c0-.03,0-.06,0-.09,0-.04-.01-.07-.02-.11,0-.01,0-.02,0-.03,0-.02-.01-.03-.02-.04-.01-.04-.03-.07-.04-.11-.01-.02-.02-.04-.04-.07-.02-.03-.04-.07-.07-.1-.01-.02-.03-.04-.05-.05-.02-.02-.03-.04-.05-.06l-19.37-18.53c-.76-.73-1.85-.99-2.86-.7l-4.24,1.24c-.71.21-1.32.68-1.7,1.31l-7.41,12.38c-.36.6-1.02.97-1.72.96l-11.89-.19c-.36,0-.69.19-.87.5-.17.31-.16.7.03,1l4.46,6.92c.38.59.42,1.34.1,1.97l-5.65,11.01c-.6,1.16-.36,2.57.58,3.47l15.73,15.05s.03.02.05.04c.02.02.05.04.07.06.03.02.05.03.08.05.03.01.05.03.08.04.03.01.06.02.1.03.02,0,.04.02.06.02,0,0,.01,0,.02,0,.06.01.13.02.2.02,0,0,.01,0,.02,0,.02,0,.03,0,.05,0,.03,0,.06,0,.1,0,.03,0,.05-.01.08-.02.02,0,.03,0,.05-.01l25.74-7.51c1.01-.29,1.79-1.11,2.04-2.13l6.36-26.04s0-.03,0-.04c0-.05.02-.09.02-.14,0-.01,0-.03,0-.04ZM65.99,46.34c.35,0,.67-.18.85-.47l8.09-13.51c.26-.43.66-.74,1.14-.88l3.34-.97c.68-.2,1.41-.02,1.91.47l15.28,14.62c1.1,1.05.65,2.89-.81,3.32l-20.3,5.93c-.68.2-1.41.02-1.91-.47l-8.4-8.04h.81ZM58.15,54.95c.48-.94.43-2.06-.14-2.94l-1.78-2.76c-.85-1.32.11-3.06,1.69-3.04l3.63.06c.5,0,.97.2,1.33.55l9.36,8.96c.51.49.72,1.21.55,1.89l-5.02,20.54c-.36,1.47-2.18,2-3.28.96l-11.52-11.02c-.63-.6-.79-1.55-.39-2.32l5.58-10.86ZM92.42,75.1l-20.3,5.93c-1.46.43-2.83-.89-2.47-2.36l5.02-20.54c.17-.68.69-1.23,1.36-1.42l20.3-5.93c1.46-.43,2.83.89,2.47,2.36l-5.02,20.54c-.17.68-.69,1.23-1.36,1.42Z"/>
    </g>
  </g>
</svg>