<?xml version="1.0" encoding="UTF-8"?>
<svg id="Layer_2" xmlns="http://www.w3.org/2000/svg" viewBox="0 0 74.22 94.71">
  <defs>
    <style>
      .cls-1 {
        fill: none;
        stroke: #232730;
        stroke-linecap: round;
        stroke-linejoin: round;
        stroke-width: 4px;
      }
    </style>
  </defs>
  <g id="Layer_1-2" data-name="Layer_1">
    <g>
      <path class="cls-1" d="M30.35,39s-.01,0,0,.01c.38.83.64,1.76.76,2.71.09.56.15,1.13.15,1.7,0,5.93-4.58,10.74-10.24,10.74s-10.24-4.81-10.24-10.74c0-3,1.01-5.69,2.9-7.65"/>
      <path class="cls-1" d="M25.41,92.71C7.91,87.59,2,74.13,2,60.29c0-16.34,10.99-24.07,11.67-24.52l.03-.03"/>
      <path class="cls-1" d="M31.23,44.19c.01-.26.03-.52.03-.78,0-6.14-5.85-10.74-5.85-19.94,0-16.87,17.56-21.47,17.56-21.47-1.46,13.8,2.93,21.47,11.7,29.14,8.78,7.67,17.56,15.34,17.56,32.21,0,11.56-7.31,24.51-23.41,29.35"/>
      <path class="cls-1" d="M35.65,54.67c1.53,2.08,2.13,4.78,1.61,7.31s-1.52,4.73-1.6,7.31,1.6,5.85,4.82,5.85c4.83,0,4.83-4.39,4.83-5.85,3.07,2.03,6.44,8.78,6.44,13.17,0,3.68-.93,7.35-3.22,10.24"/>
      <path class="cls-1" d="M25.01,92.71c-2.27-1.95-3.99-5.85-3.99-10.24,0-5.85,1.35-8.53,3.73-11.97,1.85-2.68,4.15-4.84,6.22-7.27,2.07-2.43,3.97-5.15,4.68-8.56"/>
    </g>
  </g>
</svg>