<?xml version="1.0" encoding="UTF-8"?>
<svg id="Layer_2" xmlns="http://www.w3.org/2000/svg" viewBox="0 0 91.08 91.08">
  <defs>
    <style>
      .cls-1 {
        fill: #1d1d1b;
      }
    </style>
  </defs>
  <g id="Layer_1-2" data-name="Layer_1">
    <g>
      <path class="cls-1" d="M45.54,54.5c-5.9,0-10.7-4.8-10.7-10.7,0-5.9,4.8-10.7,10.7-10.7,5.9,0,10.7,4.8,10.7,10.7,0,5.9-4.8,10.7-10.7,10.7ZM45.54,36.47c-4.04,0-7.33,3.29-7.33,7.33,0,4.04,3.29,7.33,7.33,7.33,4.04,0,7.33-3.29,7.33-7.33,0-4.04-3.29-7.33-7.33-7.33Z"/>
      <path class="cls-1" d="M45.54,74.58c-16.01,0-29.04-13.03-29.04-29.04,0-16.01,13.03-29.04,29.04-29.04,16.01,0,29.04,13.03,29.04,29.04,0,16.01-13.03,29.04-29.04,29.04ZM45.54,19.87c-14.15,0-25.66,11.51-25.66,25.66,0,14.15,11.51,25.66,25.66,25.66,14.15,0,25.67-11.51,25.67-25.66,0-14.15-11.51-25.66-25.67-25.66Z"/>
      <path class="cls-1" d="M62.11,68.95c-.83,0-1.55-.61-1.67-1.46-1.02-7.41-7.42-12.99-14.9-12.99-7.48,0-13.88,5.58-14.9,12.99-.13.92-.99,1.56-1.9,1.44-.92-.13-1.57-.98-1.44-1.9,1.25-9.07,9.09-15.91,18.25-15.91,9.15,0,17,6.84,18.24,15.91.13.93-.52,1.78-1.44,1.9-.08.01-.16.01-.23.01Z"/>
      <path class="cls-1" d="M45.54,91.08c-.93,0-1.69-.76-1.69-1.69s.76-1.69,1.69-1.69c23.25,0,42.16-18.92,42.16-42.16,0-10.75-4.04-20.98-11.39-28.82-.64-.68-.6-1.75.08-2.39.68-.64,1.75-.6,2.39.08,7.93,8.46,12.3,19.52,12.3,31.13,0,25.11-20.43,45.54-45.54,45.54Z"/>
      <path class="cls-1" d="M72.88,21.79c-.19,0-.38-.03-.57-.1-.61-.22-1.05-.77-1.11-1.42l-1.02-10.13c-.05-.5.13-1,.49-1.36.36-.36.85-.54,1.36-.49l10.13,1.02c.65.07,1.2.5,1.42,1.11.22.61.06,1.3-.4,1.76l-9.11,9.11c-.32.32-.75.49-1.19.49ZM73.75,11.85l.46,4.54,4.08-4.08-4.54-.46Z"/>
      <path class="cls-1" d="M13.53,77.2c-.45,0-.9-.18-1.23-.53C4.37,68.2,0,57.14,0,45.54,0,20.43,20.43,0,45.54,0c.93,0,1.69.76,1.69,1.69,0,.93-.76,1.69-1.69,1.69-23.25,0-42.16,18.92-42.16,42.16,0,10.75,4.04,20.98,11.39,28.82.64.68.6,1.75-.08,2.39-.33.3-.74.46-1.15.46Z"/>
      <path class="cls-1" d="M19.22,82.8c-.06,0-.11,0-.17,0l-10.13-1.02c-.65-.07-1.2-.5-1.42-1.11-.22-.61-.06-1.3.4-1.76l9.11-9.11c.46-.46,1.15-.61,1.76-.4.61.22,1.05.77,1.11,1.42l1.02,10.13c.05.5-.13,1-.49,1.36-.32.32-.75.49-1.19.49ZM12.8,78.77l4.54.46-.46-4.54-4.08,4.08Z"/>
    </g>
  </g>
</svg>