<svg width="111" height="140" viewBox="0 0 111 140" fill="none" xmlns="http://www.w3.org/2000/svg">
<path d="M105.26 25.5801L77.7801 19.3601C75.6301 18.8701 73.5001 20.2201 73.0201 22.3601L69.09 39.7101C68.6 41.8601 69.95 43.9901 72.09 44.4701L80.48 46.3701C80.88 46.4601 81.22 46.7101 81.44 47.0501L84.33 51.6301C84.57 52.0001 85.06 52.1201 85.44 51.8801L90.0201 48.9901C90.3701 48.7701 90.7801 48.7001 91.1801 48.7901L99.57 50.6901C101.72 51.1801 103.85 49.8301 104.33 47.6901L108.26 30.3401C108.75 28.1901 107.4 26.0601 105.26 25.5801Z" stroke="#F59D8F" stroke-width="4.26" stroke-linecap="round" stroke-linejoin="round"/>
<path d="M32.76 19.05L41.51 26.5401L52.65 23.58L48.23 34.2201L54.49 43.89L43.01 42.98L35.74 51.92L33.0601 40.71L22.3101 36.57L32.14 30.5601L32.76 19.05Z" stroke="#F59D8F" stroke-width="4.26" stroke-linecap="round" stroke-linejoin="round"/>
<path d="M11.7 19.2601L8.12 26.8001" stroke="#F59D8F" stroke-width="4.26" stroke-linecap="round" stroke-linejoin="round"/>
<path d="M13.6801 24.8201L6.14001 21.2401" stroke="#F59D8F" stroke-width="4.26" stroke-linecap="round" stroke-linejoin="round"/>
<path d="M68.3101 58.9401L66.76 67.1401" stroke="#F59D8F" stroke-width="4.26" stroke-linecap="round" stroke-linejoin="round"/>
<path d="M71.63 63.8101L63.4301 62.2601" stroke="#F59D8F" stroke-width="4.26" stroke-linecap="round" stroke-linejoin="round"/>
<path d="M62.4301 2.93005L64.4301 11.0301" stroke="#F59D8F" stroke-width="4.26" stroke-linecap="round" stroke-linejoin="round"/>
<path d="M67.48 5.98004L59.38 7.97004" stroke="#F59D8F" stroke-width="4.26" stroke-linecap="round" stroke-linejoin="round"/>
<path d="M15.78 42.22C13.07 48.72 12.03 56.83 13.43 66.87C14.56 74.97 1.02999 85.47 3.13999 91.07C4.91999 95.8 11.44 90.78 12.27 95.4C12.79 98.26 11.13 99.68 11.93 102.72C13.13 107.31 16.03 108.03 16.65 110.97C17.2 113.62 4.33995 133.99 47.36 121.84" stroke="#F59D8F" stroke-width="4.26" stroke-linecap="round" stroke-linejoin="round"/>
<path d="M97.87 137.05C90.33 105.71 102.15 96.7901 105.58 71.4201C106.16 67.1501 106.22 62.9601 105.79 58.9301" stroke="#F59D8F" stroke-width="4.26" stroke-linecap="round" stroke-linejoin="round"/>
<path d="M37.51 124.23C38.5 131.86 37.61 137.06 37.61 137.06" stroke="#F59D8F" stroke-width="4.26" stroke-linecap="round" stroke-linejoin="round"/>
</svg>
