<svg width="120" height="136" viewBox="0 0 120 136" fill="none" xmlns="http://www.w3.org/2000/svg">
<path d="M64.74 14.26V30.08C64.74 34.15 68.04 30.08 72.11 30.08C76.18 30.08 79.48 33.38 79.48 37.45C79.48 41.52 76.18 44.82 72.11 44.82C68.04 44.82 64.74 40.75 64.74 44.82V57.01C64.74 58.16 63.81 59.1 62.65 59.1H50.45C46.38 59.1 50.45 55.8 50.45 51.73C50.45 47.66 47.15 44.36 43.08 44.36C39.01 44.36 35.71 47.66 35.71 51.73C35.71 55.8 39.78 59.1 35.71 59.1H25.27" stroke="#F59D8F" stroke-width="4.26" stroke-linecap="round" stroke-linejoin="round"/>
<path d="M72.3 59.09H79.0201C83.0901 59.09 79.0201 62.39 79.0201 66.46C79.0201 70.53 82.32 73.83 86.39 73.83C90.46 73.83 93.76 70.53 93.76 66.46C93.76 62.39 89.69 59.09 93.76 59.09H108.04" stroke="#F59D8F" stroke-width="4.26" stroke-linecap="round" stroke-linejoin="round"/>
<path d="M64.74 102.38V88.1C64.74 84.03 61.44 88.1 57.37 88.1C53.3 88.1 50 84.8 50 80.73C50 76.66 53.3 73.36 57.37 73.36C61.44 73.36 64.74 77.43 64.74 73.36V68.41" stroke="#F59D8F" stroke-width="4.26" stroke-linecap="round" stroke-linejoin="round"/>
<path d="M108.47 133.11C100.1 98.32 113.22 88.42 117.03 60.27C121.01 30.86 102.8 5.11002 71.3 2.41002C45.69 0.210023 8.53002 10.64 14.75 55.2C16 64.2 0.990019 75.84 3.33002 82.06C5.31002 87.31 12.54 81.73 13.47 86.87C14.05 90.04 12.21 91.62 13.09 94.99C14.42 100.08 17.64 100.88 18.33 104.14C18.95 107.08 4.67002 129.69 52.41 116.21" stroke="#F59D8F" stroke-width="4.26" stroke-linecap="round" stroke-linejoin="round"/>
<path d="M41.48 118.87C42.58 127.33 41.59 133.11 41.59 133.11" stroke="#F59D8F" stroke-width="4.26" stroke-linecap="round" stroke-linejoin="round"/>
</svg>
