<svg width="154" height="144" viewBox="0 0 154 144" fill="none" xmlns="http://www.w3.org/2000/svg">
<path d="M77 15.76V2.60004" stroke="#F59D8F" stroke-width="4.26" stroke-linecap="round" stroke-linejoin="round"/>
<path d="M116.52 28.8701L124.86 18.6801" stroke="#F59D8F" stroke-width="4.26" stroke-linecap="round" stroke-linejoin="round"/>
<path d="M138.34 64.62L151.24 62.01" stroke="#F59D8F" stroke-width="4.26" stroke-linecap="round" stroke-linejoin="round"/>
<path d="M37.48 28.8701L29.15 18.6801" stroke="#F59D8F" stroke-width="4.26" stroke-linecap="round" stroke-linejoin="round"/>
<path d="M15.67 64.62L2.77002 62.01" stroke="#F59D8F" stroke-width="4.26" stroke-linecap="round" stroke-linejoin="round"/>
<path d="M70.89 104.51C76.33 105.73 80.68 105.67 84.62 104.51" stroke="#F59D8F" stroke-width="4.26" stroke-linecap="round" stroke-linejoin="round"/>
<path d="M74.65 115.26C77.11 115.81 79.08 115.78 80.87 115.26" stroke="#F59D8F" stroke-width="4.26" stroke-linecap="round" stroke-linejoin="round"/>
<path d="M63.5601 90.8801C65.4501 92.3201 66.6901 94.4301 67.0701 96.7501C66.6901 94.4401 65.4601 92.3201 63.5601 90.8801ZM63.5601 90.8801C57.9201 86.5901 54.29 79.8201 54.29 72.1901M63.5601 90.8801C57.9301 86.5901 54.29 79.8201 54.29 72.1901M54.29 72.1901C54.29 59.2301 64.7901 48.7301 77.7401 48.7201M54.29 72.1901C54.29 59.2401 64.7901 48.7301 77.7401 48.7201M77.7401 48.7201C90.5401 48.7101 101.05 59.0501 101.23 71.8501M77.7401 48.7201C90.5401 48.7001 101.05 59.0501 101.23 71.8501M101.23 71.8501C101.34 79.5801 97.7101 86.4701 92.0301 90.8201M101.23 71.8501C101.33 79.5801 97.7001 86.4701 92.0301 90.8201M92.0301 90.8201C90.5701 91.9401 89.4801 93.4301 88.8701 95.1101C89.4801 93.4301 90.5701 91.9301 92.0301 90.8201Z" stroke="#F59D8F" stroke-width="4.26" stroke-linecap="round" stroke-linejoin="round"/>
<path d="M67.0701 72.43C71.5201 69.07 71.71 75.93 76.55 71.87C81.39 67.81 82.28 75.58 87.42 72.04" stroke="#F59D8F" stroke-width="4.26" stroke-linecap="round" stroke-linejoin="round"/>
<path d="M114.74 141.4C107.4 110.93 118.9 102.26 122.24 77.6C125.72 51.84 109.78 29.28 82.19 26.92C59.76 25 27.21 34.13 32.65 73.16C33.75 81.04 20.6 91.24 22.65 96.69C24.38 101.29 30.71 96.4 31.53 100.9C32.03 103.68 30.43 105.06 31.2 108.01C32.37 112.47 35.19 113.17 35.79 116.03C36.33 118.6 23.82 138.41 65.64 126.6" stroke="#F59D8F" stroke-width="4.26" stroke-linecap="round" stroke-linejoin="round"/>
<path d="M56.0601 128.93C57.0301 136.34 56.16 141.4 56.16 141.4" stroke="#F59D8F" stroke-width="4.26" stroke-linecap="round" stroke-linejoin="round"/>
</svg>
