<svg width="181" height="108" viewBox="0 0 181 108" fill="none" xmlns="http://www.w3.org/2000/svg">
<path d="M92.2 89.5801C89.79 97.0201 84.57 105.01 75.95 105.01C67.33 105.01 62.43 99.0901 62.43 92.7701C62.43 92.1301 62.48 91.5101 62.58 90.9001C62.14 90.9401 61.69 90.9601 61.24 90.9601C52.75 90.9601 45.87 84.0801 45.87 75.5901C45.87 71.6501 47.35 68.0601 49.79 65.3401C44.68 61.7401 41.35 55.8001 41.35 49.0701C41.35 41.2601 45.86 34.5001 52.41 31.2401C51.89 30.0501 51.6 28.7401 51.6 27.3701C51.6 22.0401 55.92 17.7301 61.24 17.7301C61.27 17.7301 61.31 17.7301 61.34 17.7301C61.34 8.30006 68.5 2.31006 76.88 2.31006C84.76 2.31006 89.8 9.39006 92.64 17.7301C98.91 36.1801 98.78 69.3001 92.2 89.5901V89.5801Z" stroke="#F59D8F" stroke-width="4.26" stroke-linecap="round" stroke-linejoin="round"/>
<path d="M61.35 17.72C61.35 19.78 62.3 23.37 64.09 25.07" stroke="#F59D8F" stroke-width="4.26" stroke-linecap="round" stroke-linejoin="round"/>
<path d="M49.7999 65.3301C53.6799 67.9101 57.5699 67.9101 57.5699 67.9101" stroke="#F59D8F" stroke-width="4.26" stroke-linecap="round" stroke-linejoin="round"/>
<path d="M62.59 90.89C63.25 86.63 65.31 84.53 65.31 84.53" stroke="#F59D8F" stroke-width="4.26" stroke-linecap="round" stroke-linejoin="round"/>
<path d="M52.41 31.2401C53.02 33.1301 54.36 34.4701 54.36 34.4701" stroke="#F59D8F" stroke-width="4.26" stroke-linecap="round" stroke-linejoin="round"/>
<path d="M96.09 103.57C98.27 105.07 101.03 105.81 104.26 105.81C113.01 105.81 118.58 99.0901 118.58 92.7601C118.58 92.1201 118.53 91.5 118.43 90.89C118.87 90.93 119.32 90.95 119.77 90.95C128.26 90.95 135.14 84.07 135.14 75.58C135.14 71.64 133.66 68.0501 131.22 65.3301C136.33 61.7301 139.66 55.79 139.66 49.06C139.66 41.25 135.15 34.49 128.6 31.23C129.12 30.04 129.41 28.7301 129.41 27.3601C129.41 22.0301 125.09 17.7201 119.77 17.7201C119.74 17.7201 119.7 17.7201 119.67 17.7201C119.67 8.29005 112.51 2.30005 104.13 2.30005C101.17 2.30005 98.51 3.21005 96.33 4.85005" stroke="#F59D8F" stroke-width="4.26" stroke-linecap="round" stroke-linejoin="round"/>
<path d="M119.66 17.72C119.66 19.78 118.71 23.37 116.92 25.07" stroke="#F59D8F" stroke-width="4.26" stroke-linecap="round" stroke-linejoin="round"/>
<path d="M131.21 65.3301C127.33 67.9101 123.44 67.9101 123.44 67.9101" stroke="#F59D8F" stroke-width="4.26" stroke-linecap="round" stroke-linejoin="round"/>
<path d="M118.42 90.89C117.76 86.63 115.7 84.53 115.7 84.53" stroke="#F59D8F" stroke-width="4.26" stroke-linecap="round" stroke-linejoin="round"/>
<path d="M128.6 31.2401C127.99 33.1301 126.65 34.4701 126.65 34.4701" stroke="#F59D8F" stroke-width="4.26" stroke-linecap="round" stroke-linejoin="round"/>
<path d="M15.77 40.09C24.66 30.37 31.66 30.32 38.54 33.27" stroke="#F59D8F" stroke-width="4.26" stroke-linecap="round" stroke-linejoin="round"/>
<path d="M19.62 7.05005C11.46 7.05005 8.5 9.58005 6.91 14.17C2.25 27.57 2.25998 39.17 2.95998 48.53C3.14998 51.08 4.94999 53.25 7.42999 53.89C15.49 55.96 24.1 55.91 33.2 54.03" stroke="#F59D8F" stroke-width="4.26" stroke-linecap="round" stroke-linejoin="round"/>
<path d="M19.62 7.05005C23.03 7.05005 25.79 9.81005 25.79 13.2201C25.79 16.6301 22.68 19.32 18.77 19.32L18.11 37.71" stroke="#F59D8F" stroke-width="4.26" stroke-linecap="round" stroke-linejoin="round"/>
<path d="M165.3 40.09C156.41 30.37 149.41 30.32 142.53 33.27" stroke="#F59D8F" stroke-width="4.26" stroke-linecap="round" stroke-linejoin="round"/>
<path d="M147.87 54.0401C156.97 55.9201 165.59 55.9701 173.64 53.9001C176.12 53.2601 177.92 51.0901 178.11 48.5401C178.81 39.1801 178.82 27.5801 174.16 14.1801C172.57 9.59006 169.6 7.06006 161.45 7.06006" stroke="#F59D8F" stroke-width="4.26" stroke-linecap="round" stroke-linejoin="round"/>
<path d="M162.96 37.71L162.3 19.32C158.4 19.32 155.28 16.6201 155.28 13.2201C155.28 9.82005 158.04 7.05005 161.45 7.05005" stroke="#F59D8F" stroke-width="4.26" stroke-linecap="round" stroke-linejoin="round"/>
</svg>
